<svg width="150" height="150" viewBox="0 0 150 150" fill="none" xmlns="http://www.w3.org/2000/svg">
<rect width="150" height="150" rx="35" fill="white"/>
<g clip-path="url(#clip0_616_55)">
<path d="M96.8365 122.174C96.8365 115.476 94.3854 109.052 90.0223 104.316C85.6592 99.5797 79.7416 96.9189 73.5712 96.9189C67.4009 96.9189 61.4833 99.5797 57.1202 104.316C52.7571 109.052 50.3059 115.476 50.3059 122.174L56.8877 122.174C56.8877 117.371 58.6454 112.764 61.7742 109.368C64.903 105.972 69.1465 104.064 73.5712 104.064C77.996 104.064 82.2395 105.972 85.3682 109.368C88.497 112.764 90.2547 117.371 90.2547 122.174H96.8365Z" fill="#9B846E"/>
<path d="M111.531 78.1834C111.531 87.9217 103.636 95.8161 93.898 95.8161C84.1598 95.8161 76.2654 87.9217 76.2654 78.1834C76.2654 68.4452 84.1598 60.5508 93.898 60.5508C103.636 60.5508 111.531 68.4452 111.531 78.1834ZM82.2547 78.1834C82.2547 84.6139 87.4676 89.8268 93.898 89.8268C100.328 89.8268 105.541 84.6139 105.541 78.1834C105.541 71.753 100.328 66.5401 93.898 66.5401C87.4676 66.5401 82.2547 71.753 82.2547 78.1834Z" fill="#9B846E"/>
<path d="M76.2655 54.8573C76.2655 59.7265 72.3183 63.6737 67.4491 63.6737C62.58 63.6737 58.6328 59.7265 58.6328 54.8573C58.6328 49.9882 62.58 46.041 67.4491 46.041C72.3183 46.041 76.2655 49.9882 76.2655 54.8573ZM61.6275 54.8573C61.6275 58.0726 64.2339 60.679 67.4491 60.679C70.6643 60.679 73.2708 58.0726 73.2708 54.8573C73.2708 51.6421 70.6643 49.0357 67.4491 49.0357C64.2339 49.0357 61.6275 51.6421 61.6275 54.8573Z" fill="#9B846E"/>
<path d="M98.3062 46.0409C98.3062 50.9101 94.359 54.8573 89.4899 54.8573C84.6208 54.8573 80.6736 50.9101 80.6736 46.0409C80.6736 41.1718 84.6208 37.2246 89.4899 37.2246C94.359 37.2246 98.3062 41.1718 98.3062 46.0409ZM83.6683 46.0409C83.6683 49.2561 86.2747 51.8626 89.4899 51.8626C92.7051 51.8626 95.3116 49.2561 95.3116 46.0409C95.3116 42.8257 92.7051 40.2193 89.4899 40.2193C86.2747 40.2193 83.6683 42.8257 83.6683 46.0409Z" fill="#9B846E"/>
<path d="M69.6531 80.9393C69.6531 88.8516 63.2388 95.2659 55.3265 95.2659C47.4142 95.2659 41 88.8516 41 80.9393C41 73.027 47.4142 66.6128 55.3265 66.6128C63.2388 66.6128 69.6531 73.027 69.6531 80.9393ZM45.8663 80.9393C45.8663 86.164 50.1018 90.3995 55.3265 90.3995C60.5512 90.3995 64.7867 86.164 64.7867 80.9393C64.7867 75.7146 60.5512 71.4791 55.3265 71.4791C50.1018 71.4791 45.8663 75.7146 45.8663 80.9393Z" fill="#9B846E"/>
<path d="M78.4696 31.7143C78.4696 34.7575 76.0026 37.2245 72.9594 37.2245C69.9162 37.2245 67.4492 34.7575 67.4492 31.7143C67.4492 28.6711 69.9162 26.2041 72.9594 26.2041C76.0026 26.2041 78.4696 28.6711 78.4696 31.7143ZM69.3209 31.7143C69.3209 33.7238 70.9499 35.3529 72.9594 35.3529C74.9689 35.3529 76.598 33.7238 76.598 31.7143C76.598 29.7048 74.9689 28.0758 72.9594 28.0758C70.9499 28.0758 69.3209 29.7048 69.3209 31.7143Z" fill="#9B846E"/>
</g>
<defs>
<clipPath id="clip0_616_55">
<rect width="84" height="123.428" fill="white" transform="translate(41 24)"/>
</clipPath>
</defs>
</svg>
