<svg width="21" height="18" viewBox="0 0 21 18" fill="none" xmlns="http://www.w3.org/2000/svg">
<path d="M16.8442 6H4L1.5 16.5H19.5L16.8442 6Z" stroke="white" stroke-width="1.2"/>
<path d="M15.5188 5.9145C15.55 5.1468 15.4359 4.38029 15.1834 3.66157C14.9309 2.94285 14.5453 2.28694 14.0501 1.73372C13.5549 1.18051 12.9603 0.741545 12.3026 0.443524C11.6449 0.145503 10.9378 -0.0053476 10.2243 0.000144746C9.51077 0.0056371 8.80573 0.167357 8.15206 0.475473C7.49839 0.783588 6.90973 1.23166 6.42189 1.79244C5.93405 2.35323 5.55722 3.015 5.3143 3.73754C5.07139 4.46007 4.96747 5.22826 5.00886 5.9954L6.17596 5.92236C6.14376 5.32566 6.22459 4.72815 6.41354 4.16614C6.60248 3.60414 6.8956 3.08939 7.27505 2.6532C7.6545 2.21701 8.11237 1.86849 8.62082 1.62883C9.12926 1.38917 9.67765 1.26338 10.2327 1.25911C10.7876 1.25483 11.3377 1.37217 11.8492 1.60398C12.3608 1.83579 12.8232 2.17722 13.2085 2.60753C13.5937 3.03783 13.8936 3.54802 14.09 4.10705C14.2863 4.66609 14.3751 5.2623 14.3508 5.85944L15.5188 5.9145Z" fill="white"/>
</svg>
