<svg width="30" height="26" viewBox="0 0 30 26" fill="none" xmlns="http://www.w3.org/2000/svg">
<line x1="4" y1="9" x2="26" y2="9" stroke="white" stroke-width="2"/>
<line x1="4.97014" y1="8.24253" x2="0.970187" y2="24.2425" stroke="white" stroke-width="2"/>
<line y1="-1" x2="16.4924" y2="-1" transform="matrix(0.242533 0.970143 0.970143 -0.242533 26 8)" stroke="white" stroke-width="2"/>
<line x1="30" y1="25" x2="4.84433e-09" y2="25" stroke="white" stroke-width="2"/>
<path d="M8.19127 8.4142C8.14328 7.32809 8.28454 6.2419 8.6064 5.22201C8.92827 4.20211 9.42399 3.26993 10.0633 2.48242C10.7026 1.69492 11.472 1.06862 12.3245 0.641807C13.1771 0.214992 14.0948 -0.0033783 15.0217 3.95039e-05C15.9486 0.0034573 16.8652 0.228591 17.7155 0.661685C18.5657 1.09478 19.3317 1.72674 19.9668 2.51894C20.6019 3.31115 21.0926 4.24697 21.409 5.26921C21.7254 6.29146 21.8608 7.37867 21.807 8.46441L20.0362 8.34359C20.076 7.54031 19.9758 6.73594 19.7418 5.97963C19.5077 5.22332 19.1446 4.53095 18.6748 3.94484C18.2049 3.35872 17.6382 2.89117 17.0091 2.57074C16.3801 2.25032 15.7019 2.08375 15.0162 2.08123C14.3304 2.0787 13.6514 2.24026 13.0206 2.55604C12.3899 2.87182 11.8206 3.33518 11.3476 3.91782C10.8747 4.50046 10.5079 5.19013 10.2698 5.9447C10.0316 6.69927 9.92714 7.50289 9.96264 8.30645L8.19127 8.4142Z" fill="#FFFEFE"/>
</svg>
