<svg width="23" height="20" viewBox="0 0 23 20" fill="none" xmlns="http://www.w3.org/2000/svg">
<line x1="3.06653" y1="6.90008" x2="19.9332" y2="6.90008" stroke="#9B846E" stroke-width="1.53333"/>
<line x1="3.8103" y1="6.31924" x2="0.743672" y2="18.5859" stroke="#9B846E" stroke-width="1.53333"/>
<line y1="-0.766667" x2="12.6442" y2="-0.766667" transform="matrix(0.242533 0.970143 0.970143 -0.242533 19.9335 6.1333)" stroke="#9B846E" stroke-width="1.53333"/>
<line x1="23" y1="19.1666" x2="3.71399e-09" y2="19.1666" stroke="#9B846E" stroke-width="1.53333"/>
<path d="M6.28008 6.45089C6.24329 5.6182 6.35158 4.78546 6.59835 4.00354C6.84511 3.22162 7.22517 2.50695 7.71529 1.90319C8.2054 1.29944 8.79529 0.819276 9.44891 0.492052C10.1025 0.164827 10.8061 -0.00259003 11.5168 3.02863e-05C12.2274 0.0026506 12.9301 0.175253 13.582 0.507292C14.2338 0.83933 14.8211 1.32383 15.308 1.93119C15.7949 2.53855 16.1711 3.25601 16.4136 4.03973C16.6562 4.82345 16.7601 5.65698 16.7188 6.48938L15.3612 6.39675C15.3917 5.7809 15.3149 5.16422 15.1355 4.58438C14.956 4.00454 14.6776 3.47373 14.3174 3.02437C13.9572 2.57502 13.5227 2.21656 13.0404 1.9709C12.5582 1.72525 12.0383 1.59754 11.5125 1.59561C10.9867 1.59367 10.4662 1.71753 9.98259 1.95963C9.49901 2.20173 9.06258 2.55697 8.69997 3.00366C8.33735 3.45035 8.05617 3.9791 7.8736 4.5576C7.69103 5.13611 7.61091 5.75221 7.63813 6.36827L6.28008 6.45089Z" fill="#9B846E"/>
</svg>
