<svg width="19" height="19" viewBox="0 0 19 19" fill="none" xmlns="http://www.w3.org/2000/svg">
<g clip-path="url(#clip0_1410_44)">
<path d="M0.767449 0.767663C1.13902 0.39609 1.74146 0.39609 2.11304 0.767663L18.2601 16.9148C18.6316 17.2863 18.6316 17.8887 18.2601 18.2603C17.8885 18.6319 17.286 18.6319 16.9145 18.2603L0.767449 2.11326C0.395877 1.74168 0.395876 1.13924 0.767449 0.767663Z" fill="#9B846E"/>
<path d="M18.2601 0.767663C17.8884 0.39609 17.2861 0.39609 16.9145 0.767663L0.76745 16.9148C0.395876 17.2863 0.395876 17.8887 0.767449 18.2603C1.13903 18.6319 1.74146 18.6319 2.11303 18.2603L18.2601 2.11326C18.6316 1.74168 18.6316 1.13924 18.2601 0.767663Z" fill="#9B846E"/>
</g>
<defs>
<clipPath id="clip0_1410_44">
<rect width="19" height="19" fill="white"/>
</clipPath>
</defs>
</svg>
