<svg width="103" height="46" viewBox="0 0 103 46" fill="none" xmlns="http://www.w3.org/2000/svg">
<path d="M92.902 37.6401C92.902 35.4229 92.0154 33.2965 90.4373 31.7287C88.8592 30.1609 86.7188 29.2802 84.487 29.2802C82.2552 29.2802 80.1148 30.1609 78.5367 31.7287C76.9585 33.2965 76.072 35.4229 76.072 37.6401L78.9303 37.6401C78.9303 36.176 79.5158 34.7719 80.5578 33.7367C81.5999 32.7014 83.0133 32.1198 84.487 32.1198C85.9607 32.1198 87.3741 32.7014 88.4162 33.7367C89.4582 34.7719 90.0437 36.176 90.0437 37.6401H92.902Z" fill="white"/>
<g clip-path="url(#clip0_24_42)">
<path d="M99.634 22.5922C99.634 26.2858 96.62 29.2801 92.902 29.2801C89.184 29.2801 86.17 26.2858 86.17 22.5922C86.17 18.8985 89.184 15.9042 92.902 15.9042C96.62 15.9042 99.634 18.8985 99.634 22.5922ZM88.4567 22.5922C88.4567 25.0312 90.4469 27.0084 92.902 27.0084C95.3571 27.0084 97.3474 25.0312 97.3474 22.5922C97.3474 20.1532 95.3571 18.176 92.902 18.176C90.4469 18.176 88.4567 20.1532 88.4567 22.5922Z" fill="white"/>
</g>
<path d="M86.1699 15.9042C86.1699 17.751 84.6629 19.2482 82.8039 19.2482C80.9449 19.2482 79.4379 17.751 79.4379 15.9042C79.4379 14.0574 80.9449 12.5602 82.8039 12.5602C84.6629 12.5602 86.1699 14.0574 86.1699 15.9042ZM80.5812 15.9042C80.5812 17.1237 81.5763 18.1123 82.8039 18.1123C84.0314 18.1123 85.0266 17.1237 85.0266 15.9042C85.0266 14.6847 84.0314 13.6961 82.8039 13.6961C81.5763 13.6961 80.5812 14.6847 80.5812 15.9042Z" fill="white"/>
<g clip-path="url(#clip1_24_42)">
<path d="M92.902 9.21629C92.902 11.0631 91.395 12.5603 89.536 12.5603C87.677 12.5603 86.17 11.0631 86.17 9.21629C86.17 7.36946 87.677 5.87231 89.536 5.87231C91.395 5.87231 92.902 7.36946 92.902 9.21629ZM87.3133 9.21629C87.3133 10.4358 88.3085 11.4244 89.536 11.4244C90.7635 11.4244 91.7587 10.4358 91.7587 9.21629C91.7587 7.99678 90.7635 7.00817 89.536 7.00817C88.3085 7.00817 87.3133 7.99678 87.3133 9.21629Z" fill="white"/>
</g>
<g clip-path="url(#clip2_24_42)">
<path d="M82.804 24.2642C82.804 27.0344 80.5434 29.2801 77.755 29.2801C74.9665 29.2801 72.7059 27.0344 72.7059 24.2642C72.7059 21.494 74.9665 19.2482 77.755 19.2482C80.5434 19.2482 82.804 21.494 82.804 24.2642ZM74.421 24.2642C74.421 26.0934 75.9136 27.5764 77.755 27.5764C79.5963 27.5764 81.089 26.0934 81.089 24.2642C81.089 22.4349 79.5963 20.952 77.755 20.952C75.9136 20.952 74.421 22.4349 74.421 24.2642Z" fill="white"/>
</g>
<g clip-path="url(#clip3_24_42)">
<path d="M82.8039 7.5443C82.8039 8.4677 82.0504 9.21629 81.1209 9.21629C80.1914 9.21629 79.4379 8.4677 79.4379 7.5443C79.4379 6.62089 80.1914 5.87231 81.1209 5.87231C82.0504 5.87231 82.8039 6.62089 82.8039 7.5443ZM80.0095 7.5443C80.0095 8.15406 80.5071 8.64836 81.1209 8.64836C81.7346 8.64836 82.2322 8.15406 82.2322 7.5443C82.2322 6.93455 81.7346 6.44024 81.1209 6.44024C80.5071 6.44024 80.0095 6.93455 80.0095 7.5443Z" fill="white"/>
</g>
<path d="M2.06583 11C1.98583 11 1.92183 10.976 1.87383 10.928C1.82583 10.88 1.80183 10.82 1.80183 10.748V4.988C1.80183 4.924 1.82583 4.872 1.87383 4.832C1.92983 4.784 1.98583 4.76 2.04183 4.76H3.04983C3.18583 4.76 3.28983 4.828 3.36183 4.964L5.20983 8.324L7.05783 4.964C7.12983 4.828 7.23383 4.76 7.36983 4.76H8.36583C8.43783 4.76 8.49783 4.784 8.54583 4.832C8.59383 4.872 8.61783 4.924 8.61783 4.988V10.748C8.61783 10.82 8.59383 10.88 8.54583 10.928C8.49783 10.976 8.43383 11 8.35383 11H7.32183C7.24183 11 7.17783 10.976 7.12983 10.928C7.08983 10.88 7.06983 10.82 7.06983 10.748V6.392L7.56183 6.476L5.78583 9.752C5.74583 9.824 5.69783 9.892 5.64183 9.956C5.58583 10.012 5.50583 10.04 5.40183 10.04H5.00583C4.90983 10.04 4.83383 10.012 4.77783 9.956C4.72183 9.9 4.67383 9.832 4.63383 9.752L2.89383 6.608L3.34983 6.536V10.748C3.34983 10.82 3.32583 10.88 3.27783 10.928C3.22983 10.976 3.16983 11 3.09783 11H2.06583ZM10.5273 11C10.4473 11 10.3793 10.972 10.3233 10.916C10.2673 10.86 10.2393 10.792 10.2393 10.712V5.048C10.2393 4.968 10.2673 4.9 10.3233 4.844C10.3793 4.788 10.4473 4.76 10.5273 4.76H11.5353C11.6153 4.76 11.6833 4.788 11.7393 4.844C11.7953 4.9 11.8233 4.968 11.8233 5.048V6.74H12.9873C13.8033 6.74 14.4153 6.932 14.8233 7.316C15.2313 7.7 15.4353 8.228 15.4353 8.9C15.4353 9.596 15.2153 10.12 14.7753 10.472C14.3433 10.824 13.7153 11 12.8913 11H10.5273ZM11.7993 9.86H12.8553C13.2473 9.86 13.5353 9.788 13.7193 9.644C13.9113 9.5 14.0073 9.252 14.0073 8.9C14.0073 8.556 13.9153 8.3 13.7313 8.132C13.5553 7.964 13.2633 7.88 12.8553 7.88H11.7993V9.86ZM16.5153 11C16.4353 11 16.3673 10.972 16.3113 10.916C16.2553 10.86 16.2273 10.792 16.2273 10.712V5.048C16.2273 4.968 16.2553 4.9 16.3113 4.844C16.3673 4.788 16.4353 4.76 16.5153 4.76H17.5113C17.5993 4.76 17.6673 4.788 17.7153 4.844C17.7713 4.9 17.7993 4.968 17.7993 5.048V10.712C17.7993 10.792 17.7713 10.86 17.7153 10.916C17.6673 10.972 17.5993 11 17.5113 11H16.5153ZM19.2231 11C19.1351 11 19.0631 10.972 19.0071 10.916C18.9511 10.86 18.9231 10.788 18.9231 10.7V9.956C18.9231 9.78 19.0151 9.684 19.1991 9.668C19.4391 9.652 19.6311 9.54 19.7751 9.332C19.9191 9.124 20.0231 8.804 20.0871 8.372C20.1511 7.932 20.1831 7.364 20.1831 6.668V5.048C20.1831 4.968 20.2111 4.9 20.2671 4.844C20.3231 4.788 20.3951 4.76 20.4831 4.76H24.7431C24.8231 4.76 24.8911 4.788 24.9471 4.844C25.0031 4.9 25.0311 4.968 25.0311 5.048V10.712C25.0311 10.792 25.0031 10.86 24.9471 10.916C24.8911 10.972 24.8231 11 24.7431 11H23.7471C23.6591 11 23.5871 10.972 23.5311 10.916C23.4831 10.86 23.4591 10.792 23.4591 10.712V6.032H21.6951V6.836C21.6951 7.604 21.6511 8.256 21.5631 8.792C21.4831 9.32 21.3431 9.748 21.1431 10.076C20.9511 10.396 20.6951 10.632 20.3751 10.784C20.0631 10.928 19.6791 11 19.2231 11ZM29.4056 11.12C28.7656 11.12 28.2256 11.008 27.7856 10.784C27.3536 10.56 27.0216 10.244 26.7896 9.836C26.5656 9.428 26.4376 8.952 26.4056 8.408C26.3976 8.264 26.3936 8.088 26.3936 7.88C26.3936 7.672 26.3976 7.496 26.4056 7.352C26.4376 6.8 26.5696 6.324 26.8016 5.924C27.0416 5.516 27.3776 5.2 27.8096 4.976C28.2496 4.752 28.7816 4.64 29.4056 4.64C30.0296 4.64 30.5576 4.752 30.9896 4.976C31.4296 5.2 31.7656 5.516 31.9976 5.924C32.2376 6.324 32.3736 6.8 32.4056 7.352C32.4136 7.496 32.4176 7.672 32.4176 7.88C32.4176 8.088 32.4136 8.264 32.4056 8.408C32.3736 8.952 32.2416 9.428 32.0096 9.836C31.7856 10.244 31.4536 10.56 31.0136 10.784C30.5816 11.008 30.0456 11.12 29.4056 11.12ZM29.4056 9.932C29.8296 9.932 30.1576 9.8 30.3896 9.536C30.6216 9.264 30.7496 8.868 30.7736 8.348C30.7816 8.228 30.7856 8.072 30.7856 7.88C30.7856 7.688 30.7816 7.532 30.7736 7.412C30.7496 6.9 30.6216 6.508 30.3896 6.236C30.1576 5.964 29.8296 5.828 29.4056 5.828C28.9816 5.828 28.6536 5.964 28.4216 6.236C28.1896 6.508 28.0616 6.9 28.0376 7.412C28.0296 7.532 28.0256 7.688 28.0256 7.88C28.0256 8.072 28.0296 8.228 28.0376 8.348C28.0616 8.868 28.1896 9.264 28.4216 9.536C28.6536 9.8 28.9816 9.932 29.4056 9.932ZM34.0351 11C33.9551 11 33.8871 10.972 33.8311 10.916C33.7751 10.86 33.7471 10.792 33.7471 10.712V5.048C33.7471 4.968 33.7751 4.9 33.8311 4.844C33.8871 4.788 33.9551 4.76 34.0351 4.76H36.6991C37.5471 4.76 38.1751 4.916 38.5831 5.228C38.9911 5.54 39.1951 5.96 39.1951 6.488C39.1951 6.824 39.1311 7.084 39.0031 7.268C38.8751 7.452 38.6991 7.612 38.4751 7.748C38.7551 7.876 38.9711 8.072 39.1231 8.336C39.2831 8.592 39.3631 8.876 39.3631 9.188C39.3631 9.764 39.1471 10.212 38.7151 10.532C38.2911 10.844 37.6631 11 36.8311 11H34.0351ZM35.2831 9.92H36.7231C37.0431 9.92 37.2991 9.86 37.4911 9.74C37.6831 9.62 37.7791 9.432 37.7791 9.176C37.7791 8.912 37.6911 8.72 37.5151 8.6C37.3391 8.48 37.0751 8.42 36.7231 8.42H35.2831V9.92ZM35.2831 7.304H36.6751C36.9951 7.304 37.2471 7.24 37.4311 7.112C37.6151 6.976 37.7071 6.78 37.7071 6.524C37.7071 6.268 37.6111 6.092 37.4191 5.996C37.2351 5.892 36.9871 5.84 36.6751 5.84H35.2831V7.304ZM42.5552 11.12C42.1392 11.12 41.7632 11.04 41.4272 10.88C41.0912 10.712 40.8232 10.492 40.6232 10.22C40.4312 9.94 40.3352 9.628 40.3352 9.284C40.3352 8.724 40.5592 8.28 41.0072 7.952C41.4632 7.616 42.0632 7.392 42.8072 7.28L44.4512 7.04V6.788C44.4512 6.452 44.3672 6.192 44.1992 6.008C44.0312 5.824 43.7432 5.732 43.3352 5.732C43.0472 5.732 42.8112 5.792 42.6272 5.912C42.4512 6.024 42.3192 6.176 42.2312 6.368C42.1672 6.472 42.0752 6.524 41.9552 6.524H41.0072C40.9192 6.524 40.8512 6.5 40.8032 6.452C40.7632 6.404 40.7432 6.34 40.7432 6.26C40.7512 6.132 40.8032 5.976 40.8992 5.792C40.9952 5.608 41.1472 5.432 41.3552 5.264C41.5632 5.088 41.8312 4.94 42.1592 4.82C42.4872 4.7 42.8832 4.64 43.3472 4.64C43.8512 4.64 44.2752 4.704 44.6192 4.832C44.9712 4.952 45.2512 5.116 45.4592 5.324C45.6672 5.532 45.8192 5.776 45.9152 6.056C46.0112 6.336 46.0592 6.632 46.0592 6.944V10.712C46.0592 10.792 46.0312 10.86 45.9752 10.916C45.9192 10.972 45.8512 11 45.7712 11H44.7992C44.7112 11 44.6392 10.972 44.5832 10.916C44.5352 10.86 44.5112 10.792 44.5112 10.712V10.244C44.4072 10.396 44.2672 10.54 44.0912 10.676C43.9152 10.804 43.6992 10.912 43.4432 11C43.1952 11.08 42.8992 11.12 42.5552 11.12ZM42.9632 9.98C43.2432 9.98 43.4952 9.92 43.7192 9.8C43.9512 9.68 44.1312 9.496 44.2592 9.248C44.3952 8.992 44.4632 8.672 44.4632 8.288V8.036L43.2632 8.228C42.7912 8.3 42.4392 8.416 42.2072 8.576C41.9752 8.736 41.8592 8.932 41.8592 9.164C41.8592 9.34 41.9112 9.492 42.0152 9.62C42.1272 9.74 42.2672 9.832 42.4352 9.896C42.6032 9.952 42.7792 9.98 42.9632 9.98ZM47.8987 13.28C47.8187 13.28 47.7507 13.252 47.6947 13.196C47.6387 13.14 47.6107 13.072 47.6107 12.992V5.048C47.6107 4.968 47.6387 4.9 47.6947 4.844C47.7507 4.788 47.8187 4.76 47.8987 4.76H48.8467C48.9347 4.76 49.0027 4.788 49.0507 4.844C49.1067 4.9 49.1347 4.968 49.1347 5.048V5.528C49.3267 5.272 49.5787 5.06 49.8907 4.892C50.2027 4.724 50.5907 4.64 51.0547 4.64C51.4787 4.64 51.8467 4.708 52.1587 4.844C52.4707 4.98 52.7307 5.176 52.9387 5.432C53.1467 5.68 53.3067 5.976 53.4187 6.32C53.5307 6.664 53.5947 7.044 53.6107 7.46C53.6187 7.596 53.6227 7.736 53.6227 7.88C53.6227 8.024 53.6187 8.168 53.6107 8.312C53.6027 8.712 53.5427 9.084 53.4307 9.428C53.3187 9.764 53.1547 10.06 52.9387 10.316C52.7307 10.564 52.4707 10.76 52.1587 10.904C51.8467 11.048 51.4787 11.12 51.0547 11.12C50.6227 11.12 50.2547 11.044 49.9507 10.892C49.6467 10.732 49.3987 10.524 49.2067 10.268V12.992C49.2067 13.072 49.1787 13.14 49.1227 13.196C49.0747 13.252 49.0067 13.28 48.9187 13.28H47.8987ZM50.6107 9.836C50.9547 9.836 51.2227 9.764 51.4147 9.62C51.6067 9.468 51.7427 9.272 51.8227 9.032C51.9107 8.792 51.9627 8.528 51.9787 8.24C51.9947 8 51.9947 7.76 51.9787 7.52C51.9627 7.232 51.9107 6.968 51.8227 6.728C51.7427 6.488 51.6067 6.296 51.4147 6.152C51.2227 6 50.9547 5.924 50.6107 5.924C50.2827 5.924 50.0147 6 49.8067 6.152C49.6067 6.304 49.4587 6.5 49.3627 6.74C49.2747 6.972 49.2227 7.212 49.2067 7.46C49.1987 7.604 49.1947 7.756 49.1947 7.916C49.1947 8.076 49.1987 8.232 49.2067 8.384C49.2147 8.624 49.2707 8.856 49.3747 9.08C49.4787 9.296 49.6307 9.476 49.8307 9.62C50.0307 9.764 50.2907 9.836 50.6107 9.836ZM55.2578 11C55.1778 11 55.1098 10.972 55.0538 10.916C54.9978 10.86 54.9698 10.792 54.9698 10.712V5.048C54.9698 4.968 54.9978 4.9 55.0538 4.844C55.1098 4.788 55.1778 4.76 55.2578 4.76H56.2538C56.3418 4.76 56.4098 4.788 56.4578 4.844C56.5138 4.9 56.5418 4.968 56.5418 5.048V7.196H59.2538V5.048C59.2538 4.968 59.2818 4.9 59.3378 4.844C59.3938 4.788 59.4618 4.76 59.5418 4.76H60.5378C60.6178 4.76 60.6858 4.788 60.7418 4.844C60.7978 4.9 60.8258 4.968 60.8258 5.048V10.712C60.8258 10.792 60.7978 10.86 60.7418 10.916C60.6858 10.972 60.6178 11 60.5378 11H59.5418C59.4618 11 59.3938 10.972 59.3378 10.916C59.2818 10.86 59.2538 10.792 59.2538 10.712V8.456H56.5418V10.712C56.5418 10.792 56.5138 10.86 56.4578 10.916C56.4098 10.972 56.3418 11 56.2538 11H55.2578ZM66.4064 11C66.3184 11 66.2464 10.972 66.1904 10.916C66.1424 10.86 66.1184 10.792 66.1184 10.712V8.876H64.9304V8.816C64.1224 8.816 63.5144 8.632 63.1064 8.264C62.7064 7.888 62.5064 7.396 62.5064 6.788C62.5064 6.116 62.7184 5.612 63.1424 5.276C63.5664 4.932 64.1784 4.76 64.9784 4.76H67.4264C67.5064 4.76 67.5744 4.788 67.6304 4.844C67.6864 4.9 67.7144 4.968 67.7144 5.048V10.712C67.7144 10.792 67.6864 10.86 67.6304 10.916C67.5744 10.972 67.5064 11 67.4264 11H66.4064ZM62.5664 11C62.4944 11 62.4344 10.976 62.3864 10.928C62.3384 10.88 62.3144 10.824 62.3144 10.76C62.3144 10.736 62.3184 10.708 62.3264 10.676C62.3344 10.636 62.3544 10.6 62.3864 10.568L63.7304 8.456L65.1944 8.648L63.8624 10.82C63.8384 10.868 63.7984 10.912 63.7424 10.952C63.6864 10.984 63.6264 11 63.5624 11H62.5664ZM64.9424 7.736H66.1424V5.9H65.0144C64.6464 5.9 64.3744 5.968 64.1984 6.104C64.0224 6.232 63.9344 6.46 63.9344 6.788C63.9344 7.068 64.0144 7.296 64.1744 7.472C64.3424 7.648 64.5984 7.736 64.9424 7.736Z" fill="white"/>
<path d="M1.936 25.8936C1.78933 25.8936 1.672 25.8496 1.584 25.7616C1.496 25.6736 1.452 25.5636 1.452 25.4316V14.8716C1.452 14.7543 1.496 14.6589 1.584 14.5856C1.68667 14.4976 1.78933 14.4536 1.892 14.4536H3.74C3.98933 14.4536 4.18 14.5783 4.312 14.8276L7.7 20.9876L11.088 14.8276C11.22 14.5783 11.4107 14.4536 11.66 14.4536H13.486C13.618 14.4536 13.728 14.4976 13.816 14.5856C13.904 14.6589 13.948 14.7543 13.948 14.8716V25.4316C13.948 25.5636 13.904 25.6736 13.816 25.7616C13.728 25.8496 13.6107 25.8936 13.464 25.8936H11.572C11.4253 25.8936 11.308 25.8496 11.22 25.7616C11.1467 25.6736 11.11 25.5636 11.11 25.4316V17.4456L12.012 17.5996L8.756 23.6056C8.68267 23.7376 8.59467 23.8623 8.492 23.9796C8.38933 24.0823 8.24267 24.1336 8.052 24.1336H7.326C7.15 24.1336 7.01067 24.0823 6.908 23.9796C6.80533 23.8769 6.71733 23.7523 6.644 23.6056L3.454 17.8416L4.29 17.7096V25.4316C4.29 25.5636 4.246 25.6736 4.158 25.7616C4.07 25.8496 3.96 25.8936 3.828 25.8936H1.936ZM20.2428 26.1136C19.4801 26.1136 18.7908 25.9669 18.1748 25.6736C17.5588 25.3656 17.0674 24.9623 16.7008 24.4636C16.3488 23.9503 16.1728 23.3783 16.1728 22.7476C16.1728 21.7209 16.5834 20.9069 17.4048 20.3056C18.2408 19.6896 19.3408 19.2789 20.7048 19.0736L23.7188 18.6336V18.1716C23.7188 17.5556 23.5648 17.0789 23.2568 16.7416C22.9488 16.4043 22.4208 16.2356 21.6728 16.2356C21.1448 16.2356 20.7121 16.3456 20.3748 16.5656C20.0521 16.7709 19.8101 17.0496 19.6488 17.4016C19.5314 17.5923 19.3628 17.6876 19.1428 17.6876H17.4048C17.2434 17.6876 17.1188 17.6436 17.0308 17.5556C16.9574 17.4676 16.9207 17.3503 16.9207 17.2036C16.9354 16.9689 17.0308 16.6829 17.2068 16.3456C17.3828 16.0083 17.6614 15.6856 18.0428 15.3776C18.4241 15.0549 18.9154 14.7836 19.5168 14.5636C20.1181 14.3436 20.8441 14.2336 21.6948 14.2336C22.6188 14.2336 23.3961 14.3509 24.0268 14.5856C24.6721 14.8056 25.1854 15.1063 25.5668 15.4876C25.9481 15.8689 26.2268 16.3163 26.4028 16.8296C26.5788 17.3429 26.6668 17.8856 26.6668 18.4576V25.3656C26.6668 25.5123 26.6154 25.6369 26.5128 25.7396C26.4101 25.8423 26.2854 25.8936 26.1388 25.8936H24.3568C24.1954 25.8936 24.0634 25.8423 23.9608 25.7396C23.8728 25.6369 23.8288 25.5123 23.8288 25.3656V24.5076C23.6381 24.7863 23.3814 25.0503 23.0588 25.2996C22.7361 25.5343 22.3401 25.7323 21.8708 25.8936C21.4161 26.0403 20.8734 26.1136 20.2428 26.1136ZM20.9908 24.0236C21.5041 24.0236 21.9661 23.9136 22.3768 23.6936C22.8021 23.4736 23.1321 23.1363 23.3668 22.6816C23.6161 22.2123 23.7408 21.6256 23.7408 20.9216V20.4596L21.5408 20.8116C20.6754 20.9436 20.0301 21.1563 19.6048 21.4496C19.1794 21.7429 18.9668 22.1023 18.9668 22.5276C18.9668 22.8503 19.0621 23.1289 19.2528 23.3636C19.4581 23.5836 19.7148 23.7523 20.0228 23.8696C20.3308 23.9723 20.6534 24.0236 20.9908 24.0236ZM29.0491 28.3136C28.9024 28.3136 28.7778 28.2623 28.6751 28.1596C28.5724 28.0569 28.5211 27.9323 28.5211 27.7856V24.0896C28.5211 23.9429 28.5724 23.8183 28.6751 23.7156C28.7778 23.6129 28.9024 23.5616 29.0491 23.5616H29.2251C29.6064 23.5616 29.9144 23.3636 30.1491 22.9676C30.3984 22.5569 30.5818 21.9409 30.6991 21.1196C30.8164 20.2836 30.8751 19.2276 30.8751 17.9516V14.9816C30.8751 14.8349 30.9264 14.7103 31.0291 14.6076C31.1318 14.5049 31.2564 14.4536 31.4031 14.4536H39.2351C39.3964 14.4536 39.5211 14.5049 39.6091 14.6076C39.7118 14.7103 39.7631 14.8349 39.7631 14.9816V23.5396H40.7531C40.9144 23.5396 41.0391 23.5909 41.1271 23.6936C41.2298 23.7963 41.2811 23.9209 41.2811 24.0676V27.7856C41.2811 27.9323 41.2298 28.0569 41.1271 28.1596C41.0391 28.2623 40.9144 28.3136 40.7531 28.3136H38.9271C38.7804 28.3136 38.6558 28.2623 38.5531 28.1596C38.4504 28.0569 38.3991 27.9323 38.3991 27.7856V25.8936H31.4031V27.7856C31.4031 27.9323 31.3518 28.0569 31.2491 28.1596C31.1464 28.2623 31.0218 28.3136 30.8751 28.3136H29.0491ZM32.6131 23.5616L36.8811 23.5396V16.7856H33.6471V18.2596C33.6471 19.5796 33.5591 20.6723 33.3831 21.5376C33.2071 22.4029 32.9504 23.0776 32.6131 23.5616ZM46.6256 26.1136C45.8629 26.1136 45.1736 25.9669 44.5576 25.6736C43.9416 25.3656 43.4502 24.9623 43.0836 24.4636C42.7316 23.9503 42.5556 23.3783 42.5556 22.7476C42.5556 21.7209 42.9662 20.9069 43.7876 20.3056C44.6236 19.6896 45.7236 19.2789 47.0876 19.0736L50.1016 18.6336V18.1716C50.1016 17.5556 49.9476 17.0789 49.6396 16.7416C49.3316 16.4043 48.8036 16.2356 48.0556 16.2356C47.5276 16.2356 47.0949 16.3456 46.7576 16.5656C46.4349 16.7709 46.1929 17.0496 46.0316 17.4016C45.9142 17.5923 45.7456 17.6876 45.5256 17.6876H43.7876C43.6262 17.6876 43.5016 17.6436 43.4136 17.5556C43.3402 17.4676 43.3036 17.3503 43.3036 17.2036C43.3182 16.9689 43.4136 16.6829 43.5896 16.3456C43.7656 16.0083 44.0442 15.6856 44.4256 15.3776C44.8069 15.0549 45.2982 14.7836 45.8996 14.5636C46.5009 14.3436 47.2269 14.2336 48.0776 14.2336C49.0016 14.2336 49.7789 14.3509 50.4096 14.5856C51.0549 14.8056 51.5682 15.1063 51.9496 15.4876C52.3309 15.8689 52.6096 16.3163 52.7856 16.8296C52.9616 17.3429 53.0496 17.8856 53.0496 18.4576V25.3656C53.0496 25.5123 52.9982 25.6369 52.8956 25.7396C52.7929 25.8423 52.6682 25.8936 52.5216 25.8936H50.7396C50.5782 25.8936 50.4462 25.8423 50.3436 25.7396C50.2556 25.6369 50.2116 25.5123 50.2116 25.3656V24.5076C50.0209 24.7863 49.7642 25.0503 49.4416 25.2996C49.1189 25.5343 48.7229 25.7323 48.2536 25.8936C47.7989 26.0403 47.2562 26.1136 46.6256 26.1136ZM47.3736 24.0236C47.8869 24.0236 48.3489 23.9136 48.7596 23.6936C49.1849 23.4736 49.5149 23.1363 49.7496 22.6816C49.9989 22.2123 50.1236 21.6256 50.1236 20.9216V20.4596L47.9236 20.8116C47.0582 20.9436 46.4129 21.1563 45.9876 21.4496C45.5622 21.7429 45.3496 22.1023 45.3496 22.5276C45.3496 22.8503 45.4449 23.1289 45.6356 23.3636C45.8409 23.5836 46.0976 23.7523 46.4056 23.8696C46.7136 23.9723 47.0362 24.0236 47.3736 24.0236ZM56.3559 25.8936C56.2093 25.8936 56.0919 25.8496 56.0039 25.7616C55.9159 25.6736 55.8719 25.5636 55.8719 25.4316V14.8716C55.8719 14.7543 55.9159 14.6589 56.0039 14.5856C56.1066 14.4976 56.2093 14.4536 56.3119 14.4536H58.1599C58.4093 14.4536 58.5999 14.5783 58.7319 14.8276L62.1199 20.9876L65.5079 14.8276C65.6399 14.5783 65.8306 14.4536 66.0799 14.4536H67.9059C68.0379 14.4536 68.1479 14.4976 68.2359 14.5856C68.3239 14.6589 68.3679 14.7543 68.3679 14.8716V25.4316C68.3679 25.5636 68.3239 25.6736 68.2359 25.7616C68.1479 25.8496 68.0306 25.8936 67.8839 25.8936H65.9919C65.8453 25.8936 65.7279 25.8496 65.6399 25.7616C65.5666 25.6736 65.5299 25.5636 65.5299 25.4316V17.4456L66.4319 17.5996L63.1759 23.6056C63.1026 23.7376 63.0146 23.8623 62.9119 23.9796C62.8093 24.0823 62.6626 24.1336 62.4719 24.1336H61.7459C61.5699 24.1336 61.4306 24.0823 61.3279 23.9796C61.2253 23.8769 61.1373 23.7523 61.0639 23.6056L57.8739 17.8416L58.7099 17.7096V25.4316C58.7099 25.5636 58.6659 25.6736 58.5779 25.7616C58.4899 25.8496 58.3799 25.8936 58.2479 25.8936H56.3559Z" fill="white"/>
<path d="M2.17983 37.4468C2.09316 37.4468 2.01949 37.4165 1.95883 37.3558C1.89816 37.2952 1.86783 37.2215 1.86783 37.1348V30.9988C1.86783 30.9122 1.89816 30.8385 1.95883 30.7778C2.01949 30.7172 2.09316 30.6868 2.17983 30.6868H3.24583C3.33249 30.6868 3.40616 30.7172 3.46683 30.7778C3.52749 30.8385 3.55783 30.9122 3.55783 30.9988V33.3258H4.49383L6.07983 30.8948C6.11449 30.8342 6.15783 30.7865 6.20983 30.7518C6.27049 30.7085 6.34849 30.6868 6.44383 30.6868H7.60083C7.68749 30.6868 7.75683 30.7085 7.80883 30.7518C7.86083 30.7952 7.88683 30.8515 7.88683 30.9208C7.88683 30.9468 7.87816 30.9772 7.86083 31.0118C7.85216 31.0378 7.83916 31.0638 7.82183 31.0898L5.94983 33.9368L8.09483 37.0438C8.13816 37.0958 8.15983 37.1522 8.15983 37.2128C8.15983 37.2822 8.13383 37.3385 8.08183 37.3818C8.02983 37.4252 7.96483 37.4468 7.88683 37.4468H6.57383C6.48716 37.4468 6.41349 37.4295 6.35283 37.3948C6.30083 37.3602 6.25316 37.3125 6.20983 37.2518L4.49383 34.7038H3.55783V37.1348C3.55783 37.2215 3.52749 37.2952 3.46683 37.3558C3.40616 37.4165 3.33249 37.4468 3.24583 37.4468H2.17983ZM12.2846 37.5768C11.5913 37.5768 11.0063 37.4555 10.5296 37.2128C10.0616 36.9702 9.70192 36.6278 9.45058 36.1858C9.20792 35.7438 9.06925 35.2282 9.03458 34.6388C9.02592 34.4828 9.02158 34.2922 9.02158 34.0668C9.02158 33.8415 9.02592 33.6508 9.03458 33.4948C9.06925 32.8968 9.21225 32.3812 9.46358 31.9478C9.72358 31.5058 10.0876 31.1635 10.5556 30.9208C11.0323 30.6782 11.6086 30.5568 12.2846 30.5568C12.9606 30.5568 13.5326 30.6782 14.0006 30.9208C14.4773 31.1635 14.8413 31.5058 15.0926 31.9478C15.3526 32.3812 15.4999 32.8968 15.5346 33.4948C15.5433 33.6508 15.5476 33.8415 15.5476 34.0668C15.5476 34.2922 15.5433 34.4828 15.5346 34.6388C15.4999 35.2282 15.3569 35.7438 15.1056 36.1858C14.8629 36.6278 14.5033 36.9702 14.0266 37.2128C13.5586 37.4555 12.9779 37.5768 12.2846 37.5768ZM12.2846 36.2898C12.7439 36.2898 13.0993 36.1468 13.3506 35.8608C13.6019 35.5662 13.7406 35.1372 13.7666 34.5738C13.7753 34.4438 13.7796 34.2748 13.7796 34.0668C13.7796 33.8588 13.7753 33.6898 13.7666 33.5598C13.7406 33.0052 13.6019 32.5805 13.3506 32.2858C13.0993 31.9912 12.7439 31.8438 12.2846 31.8438C11.8253 31.8438 11.4699 31.9912 11.2186 32.2858C10.9673 32.5805 10.8286 33.0052 10.8026 33.5598C10.7939 33.6898 10.7896 33.8588 10.7896 34.0668C10.7896 34.2748 10.7939 34.4438 10.8026 34.5738C10.8286 35.1372 10.9673 35.5662 11.2186 35.8608C11.4699 36.1468 11.8253 36.2898 12.2846 36.2898ZM19.0549 37.4468C18.9596 37.4468 18.8816 37.4165 18.8209 37.3558C18.7689 37.2952 18.7429 37.2215 18.7429 37.1348V32.0648H16.6239C16.5286 32.0648 16.4506 32.0345 16.3899 31.9738C16.3379 31.9132 16.3119 31.8395 16.3119 31.7528V30.9988C16.3119 30.9122 16.3379 30.8385 16.3899 30.7778C16.4506 30.7172 16.5286 30.6868 16.6239 30.6868H22.5259C22.6213 30.6868 22.6993 30.7172 22.7599 30.7778C22.8206 30.8385 22.8509 30.9122 22.8509 30.9988V31.7528C22.8509 31.8395 22.8206 31.9132 22.7599 31.9738C22.6993 32.0345 22.6213 32.0648 22.5259 32.0648H20.4199V37.1348C20.4199 37.2215 20.3896 37.2952 20.3289 37.3558C20.2683 37.4165 20.1946 37.4468 20.1079 37.4468H19.0549ZM26.8715 37.5768C26.1782 37.5768 25.5932 37.4555 25.1165 37.2128C24.6485 36.9702 24.2888 36.6278 24.0375 36.1858C23.7948 35.7438 23.6562 35.2282 23.6215 34.6388C23.6128 34.4828 23.6085 34.2922 23.6085 34.0668C23.6085 33.8415 23.6128 33.6508 23.6215 33.4948C23.6562 32.8968 23.7992 32.3812 24.0505 31.9478C24.3105 31.5058 24.6745 31.1635 25.1425 30.9208C25.6192 30.6782 26.1955 30.5568 26.8715 30.5568C27.5475 30.5568 28.1195 30.6782 28.5875 30.9208C29.0642 31.1635 29.4282 31.5058 29.6795 31.9478C29.9395 32.3812 30.0868 32.8968 30.1215 33.4948C30.1302 33.6508 30.1345 33.8415 30.1345 34.0668C30.1345 34.2922 30.1302 34.4828 30.1215 34.6388C30.0868 35.2282 29.9438 35.7438 29.6925 36.1858C29.4498 36.6278 29.0902 36.9702 28.6135 37.2128C28.1455 37.4555 27.5648 37.5768 26.8715 37.5768ZM26.8715 36.2898C27.3308 36.2898 27.6862 36.1468 27.9375 35.8608C28.1888 35.5662 28.3275 35.1372 28.3535 34.5738C28.3622 34.4438 28.3665 34.2748 28.3665 34.0668C28.3665 33.8588 28.3622 33.6898 28.3535 33.5598C28.3275 33.0052 28.1888 32.5805 27.9375 32.2858C27.6862 31.9912 27.3308 31.8438 26.8715 31.8438C26.4122 31.8438 26.0568 31.9912 25.8055 32.2858C25.5542 32.5805 25.4155 33.0052 25.3895 33.5598C25.3808 33.6898 25.3765 33.8588 25.3765 34.0668C25.3765 34.2748 25.3808 34.4438 25.3895 34.5738C25.4155 35.1372 25.5542 35.5662 25.8055 35.8608C26.0568 36.1468 26.4122 36.2898 26.8715 36.2898ZM31.8869 37.4468C31.8002 37.4468 31.7265 37.4165 31.6659 37.3558C31.6052 37.2952 31.5749 37.2215 31.5749 37.1348V30.9988C31.5749 30.9122 31.6052 30.8385 31.6659 30.7778C31.7265 30.7172 31.8002 30.6868 31.8869 30.6868H34.7729C35.6915 30.6868 36.3719 30.8558 36.8139 31.1938C37.2559 31.5318 37.4769 31.9868 37.4769 32.5588C37.4769 32.9228 37.4075 33.2045 37.2689 33.4038C37.1302 33.6032 36.9395 33.7765 36.6969 33.9238C37.0002 34.0625 37.2342 34.2748 37.3989 34.5608C37.5722 34.8382 37.6589 35.1458 37.6589 35.4838C37.6589 36.1078 37.4249 36.5932 36.9569 36.9398C36.4975 37.2778 35.8172 37.4468 34.9159 37.4468H31.8869ZM33.2389 36.2768H34.7989C35.1455 36.2768 35.4229 36.2118 35.6309 36.0818C35.8389 35.9518 35.9429 35.7482 35.9429 35.4708C35.9429 35.1848 35.8475 34.9768 35.6569 34.8468C35.4662 34.7168 35.1802 34.6518 34.7989 34.6518H33.2389V36.2768ZM33.2389 33.4428H34.7469C35.0935 33.4428 35.3665 33.3735 35.5659 33.2348C35.7652 33.0875 35.8649 32.8752 35.8649 32.5978C35.8649 32.3205 35.7609 32.1298 35.5529 32.0258C35.3535 31.9132 35.0849 31.8568 34.7469 31.8568H33.2389V33.4428ZM42.079 37.5768C41.455 37.5768 40.9046 37.4598 40.428 37.2258C39.96 36.9918 39.5916 36.6538 39.323 36.2118C39.063 35.7612 38.92 35.2195 38.894 34.5868C38.8853 34.4568 38.881 34.2878 38.881 34.0798C38.881 33.8632 38.8853 33.6855 38.894 33.5468C38.92 32.9142 39.063 32.3768 39.323 31.9348C39.5916 31.4842 39.96 31.1418 40.428 30.9078C40.9046 30.6738 41.455 30.5568 42.079 30.5568C42.6336 30.5568 43.106 30.6348 43.496 30.7908C43.886 30.9468 44.2066 31.1418 44.458 31.3758C44.7093 31.6098 44.8956 31.8568 45.017 32.1168C45.147 32.3682 45.2163 32.5978 45.225 32.8058C45.2336 32.9012 45.2033 32.9792 45.134 33.0398C45.0733 33.0918 44.9996 33.1178 44.913 33.1178H43.769C43.6823 33.1178 43.613 33.0962 43.561 33.0528C43.5176 33.0095 43.4743 32.9445 43.431 32.8578C43.301 32.5112 43.1276 32.2685 42.911 32.1298C42.703 31.9825 42.4343 31.9088 42.105 31.9088C41.6716 31.9088 41.325 32.0475 41.065 32.3248C40.8136 32.5935 40.6793 33.0225 40.662 33.6118C40.6446 33.9412 40.6446 34.2445 40.662 34.5218C40.6793 35.1198 40.8136 35.5532 41.065 35.8218C41.325 36.0905 41.6716 36.2248 42.105 36.2248C42.443 36.2248 42.716 36.1555 42.924 36.0168C43.132 35.8695 43.301 35.6225 43.431 35.2758C43.4743 35.1892 43.5176 35.1242 43.561 35.0808C43.613 35.0375 43.6823 35.0158 43.769 35.0158H44.913C44.9996 35.0158 45.0733 35.0462 45.134 35.1068C45.2033 35.1588 45.2336 35.2325 45.225 35.3278C45.2163 35.4838 45.173 35.6615 45.095 35.8608C45.0256 36.0515 44.9086 36.2508 44.744 36.4588C44.588 36.6582 44.3886 36.8445 44.146 37.0178C43.9033 37.1825 43.6086 37.3168 43.262 37.4208C42.924 37.5248 42.5296 37.5768 42.079 37.5768ZM46.8927 37.4468C46.8061 37.4468 46.7324 37.4165 46.6717 37.3558C46.6111 37.2952 46.5807 37.2215 46.5807 37.1348V30.9988C46.5807 30.9122 46.6111 30.8385 46.6717 30.7778C46.7324 30.7172 46.8061 30.6868 46.8927 30.6868H47.9587C48.0454 30.6868 48.1191 30.7172 48.1797 30.7778C48.2404 30.8385 48.2707 30.9122 48.2707 30.9988V33.3258H49.2067L50.7927 30.8948C50.8274 30.8342 50.8707 30.7865 50.9227 30.7518C50.9834 30.7085 51.0614 30.6868 51.1567 30.6868H52.3137C52.4004 30.6868 52.4697 30.7085 52.5217 30.7518C52.5737 30.7952 52.5997 30.8515 52.5997 30.9208C52.5997 30.9468 52.5911 30.9772 52.5737 31.0118C52.5651 31.0378 52.5521 31.0638 52.5347 31.0898L50.6627 33.9368L52.8077 37.0438C52.8511 37.0958 52.8727 37.1522 52.8727 37.2128C52.8727 37.2822 52.8467 37.3385 52.7947 37.3818C52.7427 37.4252 52.6777 37.4468 52.5997 37.4468H51.2867C51.2001 37.4468 51.1264 37.4295 51.0657 37.3948C51.0137 37.3602 50.9661 37.3125 50.9227 37.2518L49.2067 34.7038H48.2707V37.1348C48.2707 37.2215 48.2404 37.2952 48.1797 37.3558C48.1191 37.4165 48.0454 37.4468 47.9587 37.4468H46.8927ZM56.9975 37.5768C56.3041 37.5768 55.7191 37.4555 55.2425 37.2128C54.7745 36.9702 54.4148 36.6278 54.1635 36.1858C53.9208 35.7438 53.7821 35.2282 53.7475 34.6388C53.7388 34.4828 53.7345 34.2922 53.7345 34.0668C53.7345 33.8415 53.7388 33.6508 53.7475 33.4948C53.7821 32.8968 53.9251 32.3812 54.1765 31.9478C54.4365 31.5058 54.8005 31.1635 55.2685 30.9208C55.7451 30.6782 56.3215 30.5568 56.9975 30.5568C57.6735 30.5568 58.2455 30.6782 58.7135 30.9208C59.1901 31.1635 59.5541 31.5058 59.8055 31.9478C60.0655 32.3812 60.2128 32.8968 60.2475 33.4948C60.2561 33.6508 60.2605 33.8415 60.2605 34.0668C60.2605 34.2922 60.2561 34.4828 60.2475 34.6388C60.2128 35.2282 60.0698 35.7438 59.8185 36.1858C59.5758 36.6278 59.2161 36.9702 58.7395 37.2128C58.2715 37.4555 57.6908 37.5768 56.9975 37.5768ZM56.9975 36.2898C57.4568 36.2898 57.8121 36.1468 58.0635 35.8608C58.3148 35.5662 58.4535 35.1372 58.4795 34.5738C58.4881 34.4438 58.4925 34.2748 58.4925 34.0668C58.4925 33.8588 58.4881 33.6898 58.4795 33.5598C58.4535 33.0052 58.3148 32.5805 58.0635 32.2858C57.8121 31.9912 57.4568 31.8438 56.9975 31.8438C56.5381 31.8438 56.1828 31.9912 55.9315 32.2858C55.6801 32.5805 55.5415 33.0052 55.5155 33.5598C55.5068 33.6898 55.5025 33.8588 55.5025 34.0668C55.5025 34.2748 55.5068 34.4438 55.5155 34.5738C55.5415 35.1372 55.6801 35.5662 55.9315 35.8608C56.1828 36.1468 56.5381 36.2898 56.9975 36.2898ZM61.9998 37.4468C61.9218 37.4468 61.8525 37.4165 61.7918 37.3558C61.7312 37.2952 61.7008 37.2258 61.7008 37.1478V30.9988C61.7008 30.9122 61.7312 30.8385 61.7918 30.7778C61.8525 30.7172 61.9262 30.6868 62.0128 30.6868H63.0918C63.1872 30.6868 63.2608 30.7172 63.3128 30.7778C63.3735 30.8385 63.4038 30.9122 63.4038 30.9988V36.1338L62.9488 35.8088L66.5238 30.8948C66.5672 30.8342 66.6148 30.7865 66.6668 30.7518C66.7188 30.7085 66.7882 30.6868 66.8748 30.6868H67.8628C67.9408 30.6868 68.0102 30.7172 68.0708 30.7778C68.1315 30.8298 68.1618 30.8948 68.1618 30.9728V37.1348C68.1618 37.2215 68.1315 37.2952 68.0708 37.3558C68.0102 37.4165 67.9365 37.4468 67.8498 37.4468H66.7708C66.6755 37.4468 66.5975 37.4165 66.5368 37.3558C66.4848 37.2952 66.4588 37.2215 66.4588 37.1348V32.2338L66.9398 32.2988L63.3388 37.2388C63.3042 37.2908 63.2565 37.3385 63.1958 37.3818C63.1438 37.4252 63.0745 37.4468 62.9878 37.4468H61.9998ZM65.0028 29.8028C64.4828 29.8028 64.0668 29.7205 63.7548 29.5558C63.4428 29.3912 63.2175 29.1788 63.0788 28.9188C62.9488 28.6502 62.8838 28.3642 62.8838 28.0608C62.8838 27.9915 62.9055 27.9352 62.9488 27.8918C62.9922 27.8398 63.0528 27.8138 63.1308 27.8138H63.8718C63.9498 27.8138 64.0105 27.8398 64.0538 27.8918C64.0972 27.9352 64.1188 27.9915 64.1188 28.0608C64.1188 28.2515 64.1795 28.4248 64.3008 28.5808C64.4222 28.7282 64.6562 28.8018 65.0028 28.8018C65.3668 28.8018 65.6052 28.7282 65.7178 28.5808C65.8305 28.4248 65.8868 28.2515 65.8868 28.0608C65.8868 27.9915 65.9085 27.9352 65.9518 27.8918C65.9952 27.8398 66.0558 27.8138 66.1338 27.8138H66.8878C66.9658 27.8138 67.0265 27.8398 67.0698 27.8918C67.1132 27.9352 67.1348 27.9915 67.1348 28.0608C67.1348 28.3642 67.0655 28.6502 66.9268 28.9188C66.7882 29.1788 66.5628 29.3912 66.2508 29.5558C65.9475 29.7205 65.5315 29.8028 65.0028 29.8028Z" fill="white"/>
<defs>
<clipPath id="clip0_24_42">
<rect width="16.8301" height="16.7199" fill="white" transform="translate(86.17 12.5602)"/>
</clipPath>
<clipPath id="clip1_24_42">
<rect width="6.73203" height="6.68794" fill="white" transform="translate(86.17 5.87231)"/>
</clipPath>
<clipPath id="clip2_24_42">
<rect width="10.098" height="10.0319" fill="white" transform="translate(72.7059 19.2482)"/>
</clipPath>
<clipPath id="clip3_24_42">
<rect width="3.36601" height="3.34397" fill="white" transform="translate(79.4379 5.87231)"/>
</clipPath>
</defs>
</svg>
