<svg width="19" height="31" viewBox="-3 1 25.5 19" fill="none" xmlns="http://www.w3.org/2000/svg" stroke="white" stroke-width="0.5">
<path d="M15 5.33216C14.9973 8.27175 12.5326 10.6526 9.49507 10.65C6.45751 10.6474 3.99728 8.2622 4.00001 5.32261C4.00273 2.38301 6.46738 0.00213845 9.50494 0.00477637C12.5425 0.00741428 15.0027 2.39256 15 5.33216ZM4.97966 5.32346C4.97742 7.73945 6.99943 9.69976 9.49595 9.70193C11.9925 9.7041 14.0181 7.7473 14.0203 5.33131C14.0226 2.91531 12.0006 0.955003 9.50406 0.952835C7.00755 0.950667 4.9819 2.90746 4.97966 5.32346Z" fill="white"/>
<path d="M18.9854 20.3015C18.8503 17.9482 17.7865 15.7349 16.0136 14.1189C14.2407 12.5029 11.8942 11.6076 9.45874 11.6178C7.02329 11.6281 4.68491 12.5431 2.9266 14.1739C1.16829 15.8048 0.124347 18.0269 0.0104027 20.3812L0.862437 20.4198C0.96615 18.2769 1.91636 16.2543 3.5168 14.7699C5.11724 13.2855 7.24566 12.4526 9.46245 12.4433C11.6792 12.434 13.815 13.2489 15.4288 14.7198C17.0425 16.1907 18.0108 18.2052 18.1337 20.3472L18.9854 20.3015Z" fill="white"/>
</svg>
