<svg width="19" height="20" viewBox="0 0 19 20" fill="none" xmlns="http://www.w3.org/2000/svg">
<path d="M14.3105 8.05276C14.435 6.14343 13.8367 3.94705 12.5971 2.50186C11.3574 1.05667 9.60394 0.164989 7.71792 0.0206902C5.83191 -0.123609 3.96583 0.491144 2.52543 1.73128C1.08504 2.97142 0.18679 4.73668 0.0259983 6.64322C-0.134794 8.54977 0.454869 10.4435 1.66678 11.9125C2.87869 13.3816 4.61485 14.3073 6.49777 14.4883C8.38069 14.6693 10.2581 14.0911 11.7219 12.8792C13.1856 11.6674 14.1173 9.91995 14.3144 8.01689L12.6147 7.83676C12.4646 9.28666 11.7548 10.618 10.6396 11.5413C9.52438 12.4645 8.094 12.9051 6.65944 12.7672C5.22488 12.6293 3.90214 11.924 2.97881 10.8048C2.05548 9.68551 1.60623 8.24275 1.72874 6.7902C1.85124 5.33764 2.5356 3.99273 3.633 3.0479C4.73041 2.10306 6.15213 1.63469 7.58905 1.74463C9.02597 1.85457 10.3619 2.53392 11.3064 3.63498C12.2508 4.73604 12.7096 6.38209 12.6147 7.83676L13.4645 7.92683L14.3105 8.05276Z" fill="#9B846E"/>
<line y1="-1" x2="9.02632" y2="-1" transform="matrix(0.682581 0.73081 -0.722857 0.690998 11.2727 13.0376)" stroke="#9B846E" stroke-width="2"/>
</svg>
