<svg width="23" height="32" viewBox="0 0 23 32" fill="none" xmlns="http://www.w3.org/2000/svg">
<path d="M15.236 25.5416C15.236 23.8287 14.5672 22.186 13.3766 20.9749C12.186 19.7637 10.5713 19.0833 8.88755 19.0833C7.20382 19.0833 5.58906 19.7637 4.39849 20.9749C3.20792 22.186 2.53906 23.8287 2.53906 25.5416L4.69547 25.5416C4.69547 24.4105 5.13714 23.3258 5.9233 22.5261C6.70947 21.7263 7.77574 21.277 8.88755 21.277C9.99935 21.277 11.0656 21.7263 11.8518 22.5261C12.638 23.3258 13.0796 24.4105 13.0796 25.5416H15.236Z" fill="#9B846E"/>
<g clip-path="url(#clip0_1333_615)">
<path d="M20.3148 13.9169C20.3148 16.7704 18.0409 19.0836 15.236 19.0836C12.4311 19.0836 10.1572 16.7704 10.1572 13.9169C10.1572 11.0634 12.4311 8.75024 15.236 8.75024C18.0409 8.75024 20.3148 11.0634 20.3148 13.9169ZM11.8824 13.9169C11.8824 15.8011 13.3838 17.3286 15.236 17.3286C17.0882 17.3286 18.5897 15.8011 18.5897 13.9169C18.5897 12.0327 17.0882 10.5052 15.236 10.5052C13.3838 10.5052 11.8824 12.0327 11.8824 13.9169Z" fill="#9B846E"/>
</g>
<path d="M9 7.5C9 8.88071 7.88071 10 6.5 10C5.11929 10 4 8.88071 4 7.5C4 6.11929 5.11929 5 6.5 5C7.88071 5 9 6.11929 9 7.5ZM4.84918 7.5C4.84918 8.41172 5.58828 9.15082 6.5 9.15082C7.41172 9.15082 8.15082 8.41172 8.15082 7.5C8.15082 6.58828 7.41172 5.84918 6.5 5.84918C5.58828 5.84918 4.84918 6.58828 4.84918 7.5Z" fill="#9B846E"/>
<g clip-path="url(#clip1_1333_615)">
<path d="M15.236 3.58334C15.236 5.01007 14.0991 6.16667 12.6966 6.16667C11.2942 6.16667 10.1572 5.01007 10.1572 3.58334C10.1572 2.1566 11.2942 1 12.6966 1C14.0991 1 15.236 2.1566 15.236 3.58334ZM11.0198 3.58334C11.0198 4.52545 11.7705 5.28918 12.6966 5.28918C13.6227 5.28918 14.3735 4.52545 14.3735 3.58334C14.3735 2.64122 13.6227 1.87749 12.6966 1.87749C11.7705 1.87749 11.0198 2.64122 11.0198 3.58334Z" fill="#9B846E"/>
</g>
<g clip-path="url(#clip2_1333_615)">
<path d="M7.61818 15.2085C7.61818 17.3486 5.91279 19.0835 3.80909 19.0835C1.70539 19.0835 0 17.3486 0 15.2085C0 13.0684 1.70539 11.3335 3.80909 11.3335C5.91279 11.3335 7.61818 13.0684 7.61818 15.2085ZM1.29385 15.2085C1.29385 16.6217 2.41996 17.7673 3.80909 17.7673C5.19822 17.7673 6.32434 16.6217 6.32434 15.2085C6.32434 13.7953 5.19822 12.6497 3.80909 12.6497C2.41996 12.6497 1.29385 13.7953 1.29385 15.2085Z" fill="#9B846E"/>
</g>
<g clip-path="url(#clip3_1333_615)">
<path d="M8.53939 1.29167C8.53939 2.00503 7.97092 2.58334 7.2697 2.58334C6.56846 2.58334 6 2.00503 6 1.29167C6 0.5783 6.56846 0 7.2697 0C7.97092 0 8.53939 0.5783 8.53939 1.29167ZM6.43128 1.29167C6.43128 1.76273 6.80665 2.14459 7.2697 2.14459C7.73274 2.14459 8.10812 1.76273 8.10812 1.29167C8.10812 0.820612 7.73274 0.438746 7.2697 0.438746C6.80665 0.438746 6.43128 0.820612 6.43128 1.29167Z" fill="#9B846E"/>
</g>
<defs>
<clipPath id="clip0_1333_615">
<rect width="12.697" height="12.9167" fill="white" transform="translate(10.1572 6.16675)"/>
</clipPath>
<clipPath id="clip1_1333_615">
<rect width="5.07879" height="5.16667" fill="white" transform="translate(10.1572 1)"/>
</clipPath>
<clipPath id="clip2_1333_615">
<rect width="7.61818" height="7.75001" fill="white" transform="translate(0 11.3335)"/>
</clipPath>
<clipPath id="clip3_1333_615">
<rect width="2.53939" height="2.58334" fill="white" transform="translate(6)"/>
</clipPath>
</defs>
</svg>
