<svg width="27" height="27" viewBox="0 0 27 27" fill="none" xmlns="http://www.w3.org/2000/svg">
<g clip-path="url(#clip0_1405_59)">
<path d="M0.91607 0.916133C1.4513 0.380902 2.31908 0.380902 2.85431 0.916133L26.1132 24.175C26.6485 24.7103 26.6485 25.5781 26.1132 26.1133C25.578 26.6485 24.7102 26.6485 24.175 26.1133L0.916071 2.85438C0.380841 2.31915 0.38084 1.45136 0.91607 0.916133Z" fill="white"/>
<path d="M26.1132 0.916133C25.578 0.380902 24.7102 0.380902 24.1749 0.916133L0.916071 24.175C0.380841 24.7103 0.380841 25.5781 0.916071 26.1133C1.4513 26.6485 2.31908 26.6485 2.85431 26.1133L26.1132 2.85438C26.6484 2.31915 26.6484 1.45136 26.1132 0.916133Z" fill="white"/>
</g>
<defs>
<clipPath id="clip0_1405_59">
<rect width="27" height="27" fill="white"/>
</clipPath>
</defs>
</svg>
