<svg width="23" height="23" viewBox="0 0 23 23" fill="none" xmlns="http://www.w3.org/2000/svg">
<g clip-path="url(#clip0_1406_62)">
<path d="M0.929146 0.929269C1.37894 0.479469 2.10821 0.479469 2.55801 0.929269L22.1044 20.4758C22.5542 20.9255 22.5542 21.6547 22.1044 22.1046C21.6547 22.5544 20.9253 22.5544 20.4756 22.1046L0.929146 2.55814C0.479348 2.10834 0.479347 1.37907 0.929146 0.929269Z" fill="white"/>
<path d="M22.1044 0.929269C21.6546 0.479469 20.9253 0.479469 20.4756 0.929269L0.929147 20.4758C0.479347 20.9255 0.479347 21.6547 0.929146 22.1046C1.37895 22.5544 2.10821 22.5544 2.55801 22.1046L22.1044 2.55814C22.5542 2.10834 22.5542 1.37907 22.1044 0.929269Z" fill="white"/>
</g>
<defs>
<clipPath id="clip0_1406_62">
<rect width="23" height="23" fill="white"/>
</clipPath>
</defs>
</svg>
