<svg width="136" height="79" viewBox="0 0 136 79" fill="none" xmlns="http://www.w3.org/2000/svg">
<path d="M2.112 61C1.952 61 1.824 60.952 1.728 60.856C1.632 60.76 1.584 60.64 1.584 60.496V48.976C1.584 48.848 1.632 48.744 1.728 48.664C1.84 48.568 1.952 48.52 2.064 48.52H4.08C4.352 48.52 4.56 48.656 4.704 48.928L8.4 55.648L12.096 48.928C12.24 48.656 12.448 48.52 12.72 48.52H14.712C14.856 48.52 14.976 48.568 15.072 48.664C15.168 48.744 15.216 48.848 15.216 48.976V60.496C15.216 60.64 15.168 60.76 15.072 60.856C14.976 60.952 14.848 61 14.688 61H12.624C12.464 61 12.336 60.952 12.24 60.856C12.16 60.76 12.12 60.64 12.12 60.496V51.784L13.104 51.952L9.552 58.504C9.472 58.648 9.376 58.784 9.264 58.912C9.152 59.024 8.992 59.08 8.784 59.08H7.992C7.8 59.08 7.648 59.024 7.536 58.912C7.424 58.8 7.328 58.664 7.248 58.504L3.768 52.216L4.68 52.072V60.496C4.68 60.64 4.632 60.76 4.536 60.856C4.44 60.952 4.32 61 4.176 61H2.112ZM19.035 61C18.875 61 18.739 60.944 18.627 60.832C18.515 60.72 18.459 60.584 18.459 60.424V49.096C18.459 48.936 18.515 48.8 18.627 48.688C18.739 48.576 18.875 48.52 19.035 48.52H21.051C21.211 48.52 21.347 48.576 21.459 48.688C21.571 48.8 21.627 48.936 21.627 49.096V52.48H23.955C25.587 52.48 26.811 52.864 27.627 53.632C28.443 54.4 28.851 55.456 28.851 56.8C28.851 58.192 28.411 59.24 27.531 59.944C26.667 60.648 25.411 61 23.763 61H19.035ZM21.579 58.72H23.691C24.475 58.72 25.051 58.576 25.419 58.288C25.803 58 25.995 57.504 25.995 56.8C25.995 56.112 25.811 55.6 25.443 55.264C25.091 54.928 24.507 54.76 23.691 54.76H21.579V58.72ZM31.011 61C30.851 61 30.715 60.944 30.603 60.832C30.491 60.72 30.435 60.584 30.435 60.424V49.096C30.435 48.936 30.491 48.8 30.603 48.688C30.715 48.576 30.851 48.52 31.011 48.52H33.003C33.179 48.52 33.315 48.576 33.411 48.688C33.523 48.8 33.579 48.936 33.579 49.096V60.424C33.579 60.584 33.523 60.72 33.411 60.832C33.315 60.944 33.179 61 33.003 61H31.011ZM36.4266 61C36.2506 61 36.1066 60.944 35.9946 60.832C35.8826 60.72 35.8266 60.576 35.8266 60.4V58.912C35.8266 58.56 36.0106 58.368 36.3786 58.336C36.8586 58.304 37.2426 58.08 37.5306 57.664C37.8186 57.248 38.0266 56.608 38.1546 55.744C38.2826 54.864 38.3466 53.728 38.3466 52.336V49.096C38.3466 48.936 38.4026 48.8 38.5146 48.688C38.6266 48.576 38.7706 48.52 38.9466 48.52H47.4666C47.6266 48.52 47.7626 48.576 47.8746 48.688C47.9866 48.8 48.0426 48.936 48.0426 49.096V60.424C48.0426 60.584 47.9866 60.72 47.8746 60.832C47.7626 60.944 47.6266 61 47.4666 61H45.4746C45.2986 61 45.1546 60.944 45.0426 60.832C44.9466 60.72 44.8986 60.584 44.8986 60.424V51.064H41.3706V52.672C41.3706 54.208 41.2826 55.512 41.1066 56.584C40.9466 57.64 40.6666 58.496 40.2666 59.152C39.8826 59.792 39.3706 60.264 38.7306 60.568C38.1066 60.856 37.3386 61 36.4266 61ZM56.7915 61.24C55.5115 61.24 54.4315 61.016 53.5515 60.568C52.6875 60.12 52.0235 59.488 51.5595 58.672C51.1115 57.856 50.8555 56.904 50.7915 55.816C50.7755 55.528 50.7675 55.176 50.7675 54.76C50.7675 54.344 50.7755 53.992 50.7915 53.704C50.8555 52.6 51.1195 51.648 51.5835 50.848C52.0635 50.032 52.7355 49.4 53.5995 48.952C54.4795 48.504 55.5435 48.28 56.7915 48.28C58.0395 48.28 59.0955 48.504 59.9595 48.952C60.8395 49.4 61.5115 50.032 61.9755 50.848C62.4555 51.648 62.7275 52.6 62.7915 53.704C62.8075 53.992 62.8155 54.344 62.8155 54.76C62.8155 55.176 62.8075 55.528 62.7915 55.816C62.7275 56.904 62.4635 57.856 61.9995 58.672C61.5515 59.488 60.8875 60.12 60.0075 60.568C59.1435 61.016 58.0715 61.24 56.7915 61.24ZM56.7915 58.864C57.6395 58.864 58.2955 58.6 58.7595 58.072C59.2235 57.528 59.4795 56.736 59.5275 55.696C59.5435 55.456 59.5515 55.144 59.5515 54.76C59.5515 54.376 59.5435 54.064 59.5275 53.824C59.4795 52.8 59.2235 52.016 58.7595 51.472C58.2955 50.928 57.6395 50.656 56.7915 50.656C55.9435 50.656 55.2875 50.928 54.8235 51.472C54.3595 52.016 54.1035 52.8 54.0555 53.824C54.0395 54.064 54.0315 54.376 54.0315 54.76C54.0315 55.144 54.0395 55.456 54.0555 55.696C54.1035 56.736 54.3595 57.528 54.8235 58.072C55.2875 58.6 55.9435 58.864 56.7915 58.864ZM66.0506 61C65.8906 61 65.7546 60.944 65.6426 60.832C65.5306 60.72 65.4746 60.584 65.4746 60.424V49.096C65.4746 48.936 65.5306 48.8 65.6426 48.688C65.7546 48.576 65.8906 48.52 66.0506 48.52H71.3786C73.0746 48.52 74.3306 48.832 75.1466 49.456C75.9626 50.08 76.3706 50.92 76.3706 51.976C76.3706 52.648 76.2426 53.168 75.9866 53.536C75.7306 53.904 75.3786 54.224 74.9306 54.496C75.4906 54.752 75.9226 55.144 76.2266 55.672C76.5466 56.184 76.7066 56.752 76.7066 57.376C76.7066 58.528 76.2746 59.424 75.4106 60.064C74.5626 60.688 73.3066 61 71.6426 61H66.0506ZM68.5466 58.84H71.4266C72.0666 58.84 72.5786 58.72 72.9626 58.48C73.3466 58.24 73.5386 57.864 73.5386 57.352C73.5386 56.824 73.3626 56.44 73.0106 56.2C72.6586 55.96 72.1306 55.84 71.4266 55.84H68.5466V58.84ZM68.5466 53.608H71.3306C71.9706 53.608 72.4746 53.48 72.8426 53.224C73.2106 52.952 73.3946 52.56 73.3946 52.048C73.3946 51.536 73.2026 51.184 72.8186 50.992C72.4506 50.784 71.9546 50.68 71.3306 50.68H68.5466V53.608ZM83.0908 61.24C82.2588 61.24 81.5068 61.08 80.8348 60.76C80.1628 60.424 79.6268 59.984 79.2268 59.44C78.8428 58.88 78.6508 58.256 78.6508 57.568C78.6508 56.448 79.0988 55.56 79.9948 54.904C80.9068 54.232 82.1068 53.784 83.5948 53.56L86.8828 53.08V52.576C86.8828 51.904 86.7148 51.384 86.3788 51.016C86.0428 50.648 85.4668 50.464 84.6508 50.464C84.0748 50.464 83.6028 50.584 83.2348 50.824C82.8828 51.048 82.6188 51.352 82.4428 51.736C82.3148 51.944 82.1308 52.048 81.8908 52.048H79.9948C79.8188 52.048 79.6828 52 79.5868 51.904C79.5068 51.808 79.4668 51.68 79.4668 51.52C79.4828 51.264 79.5868 50.952 79.7788 50.584C79.9708 50.216 80.2748 49.864 80.6908 49.528C81.1068 49.176 81.6428 48.88 82.2988 48.64C82.9548 48.4 83.7468 48.28 84.6748 48.28C85.6828 48.28 86.5308 48.408 87.2188 48.664C87.9228 48.904 88.4828 49.232 88.8988 49.648C89.3148 50.064 89.6188 50.552 89.8108 51.112C90.0028 51.672 90.0988 52.264 90.0988 52.888V60.424C90.0988 60.584 90.0428 60.72 89.9308 60.832C89.8188 60.944 89.6828 61 89.5228 61H87.5788C87.4028 61 87.2588 60.944 87.1468 60.832C87.0508 60.72 87.0028 60.584 87.0028 60.424V59.488C86.7948 59.792 86.5148 60.08 86.1628 60.352C85.8108 60.608 85.3788 60.824 84.8668 61C84.3708 61.16 83.7788 61.24 83.0908 61.24ZM83.9068 58.96C84.4668 58.96 84.9708 58.84 85.4188 58.6C85.8828 58.36 86.2428 57.992 86.4988 57.496C86.7708 56.984 86.9068 56.344 86.9068 55.576V55.072L84.5068 55.456C83.5628 55.6 82.8588 55.832 82.3948 56.152C81.9308 56.472 81.6988 56.864 81.6988 57.328C81.6988 57.68 81.8028 57.984 82.0108 58.24C82.2348 58.48 82.5148 58.664 82.8508 58.792C83.1868 58.904 83.5388 58.96 83.9068 58.96ZM93.7778 65.56C93.6178 65.56 93.4818 65.504 93.3698 65.392C93.2578 65.28 93.2018 65.144 93.2018 64.984V49.096C93.2018 48.936 93.2578 48.8 93.3698 48.688C93.4818 48.576 93.6178 48.52 93.7778 48.52H95.6738C95.8498 48.52 95.9858 48.576 96.0818 48.688C96.1938 48.8 96.2498 48.936 96.2498 49.096V50.056C96.6338 49.544 97.1378 49.12 97.7617 48.784C98.3858 48.448 99.1618 48.28 100.09 48.28C100.938 48.28 101.674 48.416 102.298 48.688C102.922 48.96 103.442 49.352 103.858 49.864C104.274 50.36 104.594 50.952 104.818 51.64C105.042 52.328 105.17 53.088 105.202 53.92C105.218 54.192 105.226 54.472 105.226 54.76C105.226 55.048 105.218 55.336 105.202 55.624C105.186 56.424 105.066 57.168 104.842 57.856C104.618 58.528 104.29 59.12 103.858 59.632C103.442 60.128 102.922 60.52 102.298 60.808C101.674 61.096 100.938 61.24 100.09 61.24C99.2258 61.24 98.4898 61.088 97.8818 60.784C97.2738 60.464 96.7778 60.048 96.3938 59.536V64.984C96.3938 65.144 96.3378 65.28 96.2258 65.392C96.1298 65.504 95.9938 65.56 95.8178 65.56H93.7778ZM99.2018 58.672C99.8898 58.672 100.426 58.528 100.81 58.24C101.194 57.936 101.466 57.544 101.626 57.064C101.802 56.584 101.906 56.056 101.938 55.48C101.97 55 101.97 54.52 101.938 54.04C101.906 53.464 101.802 52.936 101.626 52.456C101.466 51.976 101.194 51.592 100.81 51.304C100.426 51 99.8898 50.848 99.2018 50.848C98.5458 50.848 98.0098 51 97.5938 51.304C97.1938 51.608 96.8978 52 96.7058 52.48C96.5298 52.944 96.4258 53.424 96.3938 53.92C96.3778 54.208 96.3698 54.512 96.3698 54.832C96.3698 55.152 96.3778 55.464 96.3938 55.768C96.4098 56.248 96.5218 56.712 96.7298 57.16C96.9378 57.592 97.2418 57.952 97.6418 58.24C98.0418 58.528 98.5618 58.672 99.2018 58.672ZM108.496 61C108.336 61 108.2 60.944 108.088 60.832C107.976 60.72 107.92 60.584 107.92 60.424V49.096C107.92 48.936 107.976 48.8 108.088 48.688C108.2 48.576 108.336 48.52 108.496 48.52H110.488C110.664 48.52 110.8 48.576 110.896 48.688C111.008 48.8 111.064 48.936 111.064 49.096V53.392H116.488V49.096C116.488 48.936 116.544 48.8 116.656 48.688C116.768 48.576 116.904 48.52 117.064 48.52H119.056C119.216 48.52 119.352 48.576 119.464 48.688C119.576 48.8 119.632 48.936 119.632 49.096V60.424C119.632 60.584 119.576 60.72 119.464 60.832C119.352 60.944 119.216 61 119.056 61H117.064C116.904 61 116.768 60.944 116.656 60.832C116.544 60.72 116.488 60.584 116.488 60.424V55.912H111.064V60.424C111.064 60.584 111.008 60.72 110.896 60.832C110.8 60.944 110.664 61 110.488 61H108.496ZM130.793 61C130.617 61 130.473 60.944 130.361 60.832C130.265 60.72 130.217 60.584 130.217 60.424V56.752H127.841V56.632C126.225 56.632 125.009 56.264 124.193 55.528C123.393 54.776 122.993 53.792 122.993 52.576C122.993 51.232 123.417 50.224 124.265 49.552C125.113 48.864 126.337 48.52 127.937 48.52H132.833C132.993 48.52 133.129 48.576 133.241 48.688C133.353 48.8 133.409 48.936 133.409 49.096V60.424C133.409 60.584 133.353 60.72 133.241 60.832C133.129 60.944 132.993 61 132.833 61H130.793ZM123.113 61C122.969 61 122.849 60.952 122.753 60.856C122.657 60.76 122.609 60.648 122.609 60.52C122.609 60.472 122.617 60.416 122.633 60.352C122.649 60.272 122.689 60.2 122.753 60.136L125.441 55.912L128.369 56.296L125.705 60.64C125.657 60.736 125.577 60.824 125.465 60.904C125.353 60.968 125.233 61 125.105 61H123.113ZM127.865 54.472H130.265V50.8H128.009C127.273 50.8 126.729 50.936 126.377 51.208C126.025 51.464 125.849 51.92 125.849 52.576C125.849 53.136 126.009 53.592 126.329 53.944C126.665 54.296 127.177 54.472 127.865 54.472Z" fill="white"/>
<path d="M1.232 75C1.13867 75 1.064 74.972 1.008 74.916C0.952 74.86 0.924 74.79 0.924 74.706V67.986C0.924 67.9113 0.952 67.8507 1.008 67.804C1.07333 67.748 1.13867 67.72 1.204 67.72H2.38C2.53867 67.72 2.66 67.7993 2.744 67.958L4.9 71.878L7.056 67.958C7.14 67.7993 7.26133 67.72 7.42 67.72H8.582C8.666 67.72 8.736 67.748 8.792 67.804C8.848 67.8507 8.876 67.9113 8.876 67.986V74.706C8.876 74.79 8.848 74.86 8.792 74.916C8.736 74.972 8.66133 75 8.568 75H7.364C7.27067 75 7.196 74.972 7.14 74.916C7.09333 74.86 7.07 74.79 7.07 74.706V69.624L7.644 69.722L5.572 73.544C5.52533 73.628 5.46933 73.7073 5.404 73.782C5.33867 73.8473 5.24533 73.88 5.124 73.88H4.662C4.55 73.88 4.46133 73.8473 4.396 73.782C4.33067 73.7167 4.27467 73.6373 4.228 73.544L2.198 69.876L2.73 69.792V74.706C2.73 74.79 2.702 74.86 2.646 74.916C2.59 74.972 2.52 75 2.436 75H1.232ZM14.0017 75.14C13.5164 75.14 13.0777 75.0467 12.6857 74.86C12.2937 74.664 11.9811 74.4073 11.7477 74.09C11.5237 73.7633 11.4117 73.3993 11.4117 72.998C11.4117 72.3447 11.6731 71.8267 12.1957 71.444C12.7278 71.052 13.4278 70.7907 14.2957 70.66L16.2138 70.38V70.086C16.2138 69.694 16.1158 69.3907 15.9197 69.176C15.7237 68.9613 15.3877 68.854 14.9117 68.854C14.5757 68.854 14.3004 68.924 14.0857 69.064C13.8804 69.1947 13.7264 69.372 13.6238 69.596C13.5491 69.7173 13.4418 69.778 13.3018 69.778H12.1957C12.0931 69.778 12.0137 69.75 11.9577 69.694C11.9111 69.638 11.8877 69.5633 11.8877 69.47C11.8971 69.3207 11.9577 69.1387 12.0697 68.924C12.1817 68.7093 12.3591 68.504 12.6017 68.308C12.8444 68.1027 13.1571 67.93 13.5398 67.79C13.9224 67.65 14.3844 67.58 14.9258 67.58C15.5138 67.58 16.0084 67.6547 16.4098 67.804C16.8204 67.944 17.1471 68.1353 17.3898 68.378C17.6324 68.6207 17.8098 68.9053 17.9218 69.232C18.0337 69.5587 18.0897 69.904 18.0897 70.268V74.664C18.0897 74.7573 18.0571 74.8367 17.9918 74.902C17.9264 74.9673 17.8471 75 17.7538 75H16.6198C16.5171 75 16.4331 74.9673 16.3677 74.902C16.3118 74.8367 16.2838 74.7573 16.2838 74.664V74.118C16.1624 74.2953 15.9991 74.4633 15.7938 74.622C15.5884 74.7713 15.3364 74.8973 15.0378 75C14.7484 75.0933 14.4031 75.14 14.0017 75.14ZM14.4778 73.81C14.8044 73.81 15.0984 73.74 15.3598 73.6C15.6304 73.46 15.8404 73.2453 15.9898 72.956C16.1484 72.6573 16.2278 72.284 16.2278 71.836V71.542L14.8278 71.766C14.2771 71.85 13.8664 71.9853 13.5958 72.172C13.3251 72.3587 13.1898 72.5873 13.1898 72.858C13.1898 73.0633 13.2504 73.2407 13.3717 73.39C13.5024 73.53 13.6658 73.6373 13.8618 73.712C14.0578 73.7773 14.2631 73.81 14.4778 73.81ZM20.7258 76.54C20.6325 76.54 20.5531 76.5073 20.4878 76.442C20.4225 76.3767 20.3898 76.2973 20.3898 76.204V73.852C20.3898 73.7587 20.4225 73.6793 20.4878 73.614C20.5531 73.5487 20.6325 73.516 20.7258 73.516H20.8378C21.0805 73.516 21.2765 73.39 21.4258 73.138C21.5845 72.8767 21.7011 72.4847 21.7758 71.962C21.8505 71.43 21.8878 70.758 21.8878 69.946V68.056C21.8878 67.9627 21.9205 67.8833 21.9858 67.818C22.0511 67.7527 22.1305 67.72 22.2238 67.72H27.2078C27.3105 67.72 27.3898 67.7527 27.4458 67.818C27.5111 67.8833 27.5438 67.9627 27.5438 68.056V73.502H28.1738C28.2765 73.502 28.3558 73.5347 28.4118 73.6C28.4771 73.6653 28.5098 73.7447 28.5098 73.838V76.204C28.5098 76.2973 28.4771 76.3767 28.4118 76.442C28.3558 76.5073 28.2765 76.54 28.1738 76.54H27.0118C26.9185 76.54 26.8391 76.5073 26.7738 76.442C26.7085 76.3767 26.6758 76.2973 26.6758 76.204V75H22.2238V76.204C22.2238 76.2973 22.1911 76.3767 22.1258 76.442C22.0605 76.5073 21.9811 76.54 21.8878 76.54H20.7258ZM22.9938 73.516L25.7098 73.502V69.204H23.6518V70.142C23.6518 70.982 23.5958 71.6773 23.4838 72.228C23.3718 72.7787 23.2085 73.208 22.9938 73.516ZM33.0308 75.14C32.5455 75.14 32.1068 75.0467 31.7148 74.86C31.3228 74.664 31.0101 74.4073 30.7768 74.09C30.5528 73.7633 30.4408 73.3993 30.4408 72.998C30.4408 72.3447 30.7021 71.8267 31.2248 71.444C31.7568 71.052 32.4568 70.7907 33.3248 70.66L35.2428 70.38V70.086C35.2428 69.694 35.1448 69.3907 34.9488 69.176C34.7528 68.9613 34.4168 68.854 33.9408 68.854C33.6048 68.854 33.3295 68.924 33.1148 69.064C32.9095 69.1947 32.7555 69.372 32.6528 69.596C32.5781 69.7173 32.4708 69.778 32.3308 69.778H31.2248C31.1221 69.778 31.0428 69.75 30.9868 69.694C30.9401 69.638 30.9168 69.5633 30.9168 69.47C30.9261 69.3207 30.9868 69.1387 31.0988 68.924C31.2108 68.7093 31.3881 68.504 31.6308 68.308C31.8735 68.1027 32.1861 67.93 32.5688 67.79C32.9515 67.65 33.4135 67.58 33.9548 67.58C34.5428 67.58 35.0375 67.6547 35.4388 67.804C35.8495 67.944 36.1761 68.1353 36.4188 68.378C36.6615 68.6207 36.8388 68.9053 36.9508 69.232C37.0628 69.5587 37.1188 69.904 37.1188 70.268V74.664C37.1188 74.7573 37.0861 74.8367 37.0208 74.902C36.9555 74.9673 36.8761 75 36.7828 75H35.6488C35.5461 75 35.4621 74.9673 35.3968 74.902C35.3408 74.8367 35.3128 74.7573 35.3128 74.664V74.118C35.1915 74.2953 35.0281 74.4633 34.8228 74.622C34.6175 74.7713 34.3655 74.8973 34.0668 75C33.7775 75.0933 33.4321 75.14 33.0308 75.14ZM33.5068 73.81C33.8335 73.81 34.1275 73.74 34.3888 73.6C34.6595 73.46 34.8695 73.2453 35.0188 72.956C35.1775 72.6573 35.2568 72.284 35.2568 71.836V71.542L33.8568 71.766C33.3061 71.85 32.8955 71.9853 32.6248 72.172C32.3541 72.3587 32.2188 72.5873 32.2188 72.858C32.2188 73.0633 32.2795 73.2407 32.4008 73.39C32.5315 73.53 32.6948 73.6373 32.8908 73.712C33.0868 73.7773 33.2921 73.81 33.5068 73.81ZM40.3429 75C40.2495 75 40.1749 74.972 40.1189 74.916C40.0629 74.86 40.0349 74.79 40.0349 74.706V67.986C40.0349 67.9113 40.0629 67.8507 40.1189 67.804C40.1842 67.748 40.2495 67.72 40.3149 67.72H41.4909C41.6495 67.72 41.7709 67.7993 41.8549 67.958L44.0109 71.878L46.1669 67.958C46.2509 67.7993 46.3722 67.72 46.5309 67.72H47.6929C47.7769 67.72 47.8469 67.748 47.9029 67.804C47.9589 67.8507 47.9869 67.9113 47.9869 67.986V74.706C47.9869 74.79 47.9589 74.86 47.9029 74.916C47.8469 74.972 47.7722 75 47.6789 75H46.4749C46.3815 75 46.3069 74.972 46.2509 74.916C46.2042 74.86 46.1809 74.79 46.1809 74.706V69.624L46.7549 69.722L44.6829 73.544C44.6362 73.628 44.5802 73.7073 44.5149 73.782C44.4495 73.8473 44.3562 73.88 44.2349 73.88H43.7729C43.6609 73.88 43.5722 73.8473 43.5069 73.782C43.4415 73.7167 43.3855 73.6373 43.3389 73.544L41.3089 69.876L41.8409 69.792V74.706C41.8409 74.79 41.8129 74.86 41.7569 74.916C41.7009 74.972 41.6309 75 41.5469 75H40.3429Z" fill="white"/>
<path d="M54.26 75C54.1667 75 54.0873 74.9673 54.022 74.902C53.9567 74.8367 53.924 74.7573 53.924 74.664V68.056C53.924 67.9627 53.9567 67.8833 54.022 67.818C54.0873 67.7527 54.1667 67.72 54.26 67.72H55.408C55.5013 67.72 55.5807 67.7527 55.646 67.818C55.7113 67.8833 55.744 67.9627 55.744 68.056V70.562H56.752L58.46 67.944C58.4973 67.8787 58.544 67.8273 58.6 67.79C58.6653 67.7433 58.7493 67.72 58.852 67.72H60.098C60.1913 67.72 60.266 67.7433 60.322 67.79C60.378 67.8367 60.406 67.8973 60.406 67.972C60.406 68 60.3967 68.0327 60.378 68.07C60.3687 68.098 60.3547 68.126 60.336 68.154L58.32 71.22L60.63 74.566C60.6767 74.622 60.7 74.6827 60.7 74.748C60.7 74.8227 60.672 74.8833 60.616 74.93C60.56 74.9767 60.49 75 60.406 75H58.992C58.8987 75 58.8193 74.9813 58.754 74.944C58.698 74.9067 58.6467 74.8553 58.6 74.79L56.752 72.046H55.744V74.664C55.744 74.7573 55.7113 74.8367 55.646 74.902C55.5807 74.9673 55.5013 75 55.408 75H54.26ZM66.262 75.14C65.5154 75.14 64.8854 75.0093 64.372 74.748C63.868 74.4867 63.4807 74.118 63.21 73.642C62.9487 73.166 62.7994 72.6107 62.762 71.976C62.7527 71.808 62.748 71.6027 62.748 71.36C62.748 71.1173 62.7527 70.912 62.762 70.744C62.7994 70.1 62.9534 69.5447 63.224 69.078C63.504 68.602 63.896 68.2333 64.4 67.972C64.9134 67.7107 65.534 67.58 66.262 67.58C66.99 67.58 67.606 67.7107 68.11 67.972C68.6234 68.2333 69.0154 68.602 69.286 69.078C69.566 69.5447 69.7247 70.1 69.762 70.744C69.7714 70.912 69.776 71.1173 69.776 71.36C69.776 71.6027 69.7714 71.808 69.762 71.976C69.7247 72.6107 69.5707 73.166 69.3 73.642C69.0387 74.118 68.6514 74.4867 68.138 74.748C67.634 75.0093 67.0087 75.14 66.262 75.14ZM66.262 73.754C66.7567 73.754 67.1394 73.6 67.41 73.292C67.6807 72.9747 67.83 72.5127 67.858 71.906C67.8674 71.766 67.872 71.584 67.872 71.36C67.872 71.136 67.8674 70.954 67.858 70.814C67.83 70.2167 67.6807 69.7593 67.41 69.442C67.1394 69.1247 66.7567 68.966 66.262 68.966C65.7674 68.966 65.3847 69.1247 65.114 69.442C64.8434 69.7593 64.694 70.2167 64.666 70.814C64.6567 70.954 64.652 71.136 64.652 71.36C64.652 71.584 64.6567 71.766 64.666 71.906C64.694 72.5127 64.8434 72.9747 65.114 73.292C65.3847 73.6 65.7674 73.754 66.262 73.754ZM74.6732 75C74.5705 75 74.4865 74.9673 74.4212 74.902C74.3652 74.8367 74.3372 74.7573 74.3372 74.664V69.204H72.0552C71.9525 69.204 71.8685 69.1713 71.8032 69.106C71.7472 69.0407 71.7192 68.9613 71.7192 68.868V68.056C71.7192 67.9627 71.7472 67.8833 71.8032 67.818C71.8685 67.7527 71.9525 67.72 72.0552 67.72H78.4112C78.5139 67.72 78.5979 67.7527 78.6632 67.818C78.7285 67.8833 78.7612 67.9627 78.7612 68.056V68.868C78.7612 68.9613 78.7285 69.0407 78.6632 69.106C78.5979 69.1713 78.5139 69.204 78.4112 69.204H76.1432V74.664C76.1432 74.7573 76.1105 74.8367 76.0452 74.902C75.9799 74.9673 75.9005 75 75.8072 75H74.6732ZM84.211 75.14C83.4644 75.14 82.8344 75.0093 82.321 74.748C81.817 74.4867 81.4297 74.118 81.159 73.642C80.8977 73.166 80.7484 72.6107 80.711 71.976C80.7017 71.808 80.697 71.6027 80.697 71.36C80.697 71.1173 80.7017 70.912 80.711 70.744C80.7484 70.1 80.9024 69.5447 81.173 69.078C81.453 68.602 81.845 68.2333 82.349 67.972C82.8624 67.7107 83.483 67.58 84.211 67.58C84.939 67.58 85.555 67.7107 86.059 67.972C86.5724 68.2333 86.9644 68.602 87.235 69.078C87.515 69.5447 87.6737 70.1 87.711 70.744C87.7204 70.912 87.725 71.1173 87.725 71.36C87.725 71.6027 87.7204 71.808 87.711 71.976C87.6737 72.6107 87.5197 73.166 87.249 73.642C86.9877 74.118 86.6004 74.4867 86.087 74.748C85.583 75.0093 84.9577 75.14 84.211 75.14ZM84.211 73.754C84.7057 73.754 85.0884 73.6 85.359 73.292C85.6297 72.9747 85.779 72.5127 85.807 71.906C85.8164 71.766 85.821 71.584 85.821 71.36C85.821 71.136 85.8164 70.954 85.807 70.814C85.779 70.2167 85.6297 69.7593 85.359 69.442C85.0884 69.1247 84.7057 68.966 84.211 68.966C83.7164 68.966 83.3337 69.1247 83.063 69.442C82.7924 69.7593 82.643 70.2167 82.615 70.814C82.6057 70.954 82.601 71.136 82.601 71.36C82.601 71.584 82.6057 71.766 82.615 71.906C82.643 72.5127 82.7924 72.9747 83.063 73.292C83.3337 73.6 83.7164 73.754 84.211 73.754ZM90.7322 75C90.6389 75 90.5595 74.9673 90.4942 74.902C90.4289 74.8367 90.3962 74.7573 90.3962 74.664V68.056C90.3962 67.9627 90.4289 67.8833 90.4942 67.818C90.5595 67.7527 90.6389 67.72 90.7322 67.72H93.8402C94.8295 67.72 95.5622 67.902 96.0382 68.266C96.5142 68.63 96.7522 69.12 96.7522 69.736C96.7522 70.128 96.6775 70.4313 96.5282 70.646C96.3789 70.8607 96.1735 71.0473 95.9122 71.206C96.2389 71.3553 96.4909 71.584 96.6682 71.892C96.8549 72.1907 96.9482 72.522 96.9482 72.886C96.9482 73.558 96.6962 74.0807 96.1922 74.454C95.6975 74.818 94.9649 75 93.9942 75H90.7322ZM92.1882 73.74H93.8682C94.2415 73.74 94.5402 73.67 94.7642 73.53C94.9882 73.39 95.1002 73.1707 95.1002 72.872C95.1002 72.564 94.9975 72.34 94.7922 72.2C94.5869 72.06 94.2789 71.99 93.8682 71.99H92.1882V73.74ZM92.1882 70.688H93.8122C94.1855 70.688 94.4795 70.6133 94.6942 70.464C94.9089 70.3053 95.0162 70.0767 95.0162 69.778C95.0162 69.4793 94.9042 69.274 94.6802 69.162C94.4655 69.0407 94.1762 68.98 93.8122 68.98H92.1882V70.688ZM102.828 75.14C102.156 75.14 101.564 75.014 101.05 74.762C100.546 74.51 100.15 74.146 99.8603 73.67C99.5803 73.1847 99.4263 72.6013 99.3983 71.92C99.389 71.78 99.3843 71.598 99.3843 71.374C99.3843 71.1407 99.389 70.9493 99.3983 70.8C99.4263 70.1187 99.5803 69.54 99.8603 69.064C100.15 68.5787 100.546 68.21 101.05 67.958C101.564 67.706 102.156 67.58 102.828 67.58C103.426 67.58 103.934 67.664 104.354 67.832C104.774 68 105.12 68.21 105.39 68.462C105.661 68.714 105.862 68.98 105.992 69.26C106.132 69.5307 106.207 69.778 106.216 70.002C106.226 70.1047 106.193 70.1887 106.118 70.254C106.053 70.31 105.974 70.338 105.88 70.338H104.648C104.555 70.338 104.48 70.3147 104.424 70.268C104.378 70.2213 104.331 70.1513 104.284 70.058C104.144 69.6847 103.958 69.4233 103.724 69.274C103.5 69.1153 103.211 69.036 102.856 69.036C102.39 69.036 102.016 69.1853 101.736 69.484C101.466 69.7733 101.321 70.2353 101.302 70.87C101.284 71.2247 101.284 71.5513 101.302 71.85C101.321 72.494 101.466 72.9607 101.736 73.25C102.016 73.5393 102.39 73.684 102.856 73.684C103.22 73.684 103.514 73.6093 103.738 73.46C103.962 73.3013 104.144 73.0353 104.284 72.662C104.331 72.5687 104.378 72.4987 104.424 72.452C104.48 72.4053 104.555 72.382 104.648 72.382H105.88C105.974 72.382 106.053 72.4147 106.118 72.48C106.193 72.536 106.226 72.6153 106.216 72.718C106.207 72.886 106.16 73.0773 106.076 73.292C106.002 73.4973 105.876 73.712 105.698 73.936C105.53 74.1507 105.316 74.3513 105.054 74.538C104.793 74.7153 104.476 74.86 104.102 74.972C103.738 75.084 103.314 75.14 102.828 75.14ZM109.132 75C109.039 75 108.96 74.9673 108.894 74.902C108.829 74.8367 108.796 74.7573 108.796 74.664V68.056C108.796 67.9627 108.829 67.8833 108.894 67.818C108.96 67.7527 109.039 67.72 109.132 67.72H110.28C110.374 67.72 110.453 67.7527 110.518 67.818C110.584 67.8833 110.616 67.9627 110.616 68.056V70.562H111.624L113.332 67.944C113.37 67.8787 113.416 67.8273 113.472 67.79C113.538 67.7433 113.622 67.72 113.724 67.72H114.97C115.064 67.72 115.138 67.7433 115.194 67.79C115.25 67.8367 115.278 67.8973 115.278 67.972C115.278 68 115.269 68.0327 115.25 68.07C115.241 68.098 115.227 68.126 115.208 68.154L113.192 71.22L115.502 74.566C115.549 74.622 115.572 74.6827 115.572 74.748C115.572 74.8227 115.544 74.8833 115.488 74.93C115.432 74.9767 115.362 75 115.278 75H113.864C113.771 75 113.692 74.9813 113.626 74.944C113.57 74.9067 113.519 74.8553 113.472 74.79L111.624 72.046H110.616V74.664C110.616 74.7573 110.584 74.8367 110.518 74.902C110.453 74.9673 110.374 75 110.28 75H109.132ZM121.134 75.14C120.388 75.14 119.758 75.0093 119.244 74.748C118.74 74.4867 118.353 74.118 118.082 73.642C117.821 73.166 117.672 72.6107 117.634 71.976C117.625 71.808 117.62 71.6027 117.62 71.36C117.62 71.1173 117.625 70.912 117.634 70.744C117.672 70.1 117.826 69.5447 118.096 69.078C118.376 68.602 118.768 68.2333 119.272 67.972C119.786 67.7107 120.406 67.58 121.134 67.58C121.862 67.58 122.478 67.7107 122.982 67.972C123.496 68.2333 123.888 68.602 124.158 69.078C124.438 69.5447 124.597 70.1 124.634 70.744C124.644 70.912 124.648 71.1173 124.648 71.36C124.648 71.6027 124.644 71.808 124.634 71.976C124.597 72.6107 124.443 73.166 124.172 73.642C123.911 74.118 123.524 74.4867 123.01 74.748C122.506 75.0093 121.881 75.14 121.134 75.14ZM121.134 73.754C121.629 73.754 122.012 73.6 122.282 73.292C122.553 72.9747 122.702 72.5127 122.73 71.906C122.74 71.766 122.744 71.584 122.744 71.36C122.744 71.136 122.74 70.954 122.73 70.814C122.702 70.2167 122.553 69.7593 122.282 69.442C122.012 69.1247 121.629 68.966 121.134 68.966C120.64 68.966 120.257 69.1247 119.986 69.442C119.716 69.7593 119.566 70.2167 119.538 70.814C119.529 70.954 119.524 71.136 119.524 71.36C119.524 71.584 119.529 71.766 119.538 71.906C119.566 72.5127 119.716 72.9747 119.986 73.292C120.257 73.6 120.64 73.754 121.134 73.754ZM127.642 75C127.558 75 127.483 74.9673 127.418 74.902C127.352 74.8367 127.32 74.762 127.32 74.678V68.056C127.32 67.9627 127.352 67.8833 127.418 67.818C127.483 67.7527 127.562 67.72 127.656 67.72H128.818C128.92 67.72 129 67.7527 129.056 67.818C129.121 67.8833 129.154 67.9627 129.154 68.056V73.586L128.664 73.236L132.514 67.944C132.56 67.8787 132.612 67.8273 132.668 67.79C132.724 67.7433 132.798 67.72 132.892 67.72H133.956C134.04 67.72 134.114 67.7527 134.18 67.818C134.245 67.874 134.278 67.944 134.278 68.028V74.664C134.278 74.7573 134.245 74.8367 134.18 74.902C134.114 74.9673 134.035 75 133.942 75H132.78C132.677 75 132.593 74.9673 132.528 74.902C132.472 74.8367 132.444 74.7573 132.444 74.664V69.386L132.962 69.456L129.084 74.776C129.046 74.832 128.995 74.8833 128.93 74.93C128.874 74.9767 128.799 75 128.706 75H127.642ZM130.876 66.768C130.316 66.768 129.868 66.6793 129.532 66.502C129.196 66.3247 128.953 66.096 128.804 65.816C128.664 65.5267 128.594 65.2187 128.594 64.892C128.594 64.8173 128.617 64.7567 128.664 64.71C128.71 64.654 128.776 64.626 128.86 64.626H129.658C129.742 64.626 129.807 64.654 129.854 64.71C129.9 64.7567 129.924 64.8173 129.924 64.892C129.924 65.0973 129.989 65.284 130.12 65.452C130.25 65.6107 130.502 65.69 130.876 65.69C131.268 65.69 131.524 65.6107 131.646 65.452C131.767 65.284 131.828 65.0973 131.828 64.892C131.828 64.8173 131.851 64.7567 131.898 64.71C131.944 64.654 132.01 64.626 132.094 64.626H132.906C132.99 64.626 133.055 64.654 133.102 64.71C133.148 64.7567 133.172 64.8173 133.172 64.892C133.172 65.2187 133.097 65.5267 132.948 65.816C132.798 66.096 132.556 66.3247 132.22 66.502C131.893 66.6793 131.445 66.768 130.876 66.768Z" fill="white"/>
<g clip-path="url(#clip0_703_20)">
<path d="M74.3333 44.5416C74.3333 41.5026 73.2212 38.5882 71.2416 36.4393C69.2621 34.2905 66.5772 33.0833 63.7777 33.0833C60.9782 33.0833 58.2934 34.2905 56.3138 36.4393C54.3343 38.5882 53.2222 41.5026 53.2222 44.5416L56.8076 44.5416C56.8076 42.5349 57.542 40.6104 58.8491 39.1914C60.1563 37.7725 61.9291 36.9753 63.7777 36.9753C65.6263 36.9753 67.3992 37.7725 68.7063 39.1914C70.0135 40.6104 70.7478 42.5349 70.7478 44.5416H74.3333Z" fill="white"/>
<path d="M83 24.0834C83 28.7778 79.1944 32.5834 74.5 32.5834C69.8056 32.5834 66 28.7778 66 24.0834C66 19.389 69.8056 15.5834 74.5 15.5834C79.1944 15.5834 83 19.389 83 24.0834ZM68.8872 24.0834C68.8872 27.1832 71.4002 29.6962 74.5 29.6962C77.5998 29.6962 80.1128 27.1832 80.1128 24.0834C80.1128 20.9835 77.5998 18.4706 74.5 18.4706C71.4002 18.4706 68.8872 20.9835 68.8872 24.0834Z" fill="white"/>
<path d="M65 14C65 16.2091 63.2091 18 61 18C58.7909 18 57 16.2091 57 14C57 11.7909 58.7909 10 61 10C63.2091 10 65 11.7909 65 14ZM58.3587 14C58.3587 15.4588 59.5412 16.6413 61 16.6413C62.4588 16.6413 63.6413 15.4588 63.6413 14C63.6413 12.5412 62.4588 11.3587 61 11.3587C59.5412 11.3587 58.3587 12.5412 58.3587 14Z" fill="white"/>
<g clip-path="url(#clip1_703_20)">
<path d="M74 9C74 11.2091 72.2091 13 70 13C67.7909 13 66 11.2091 66 9C66 6.79086 67.7909 5 70 5C72.2091 5 74 6.79086 74 9ZM67.3587 9C67.3587 10.4588 68.5412 11.6413 70 11.6413C71.4588 11.6413 72.6413 10.4588 72.6413 9C72.6413 7.54125 71.4588 6.35869 70 6.35869C68.5412 6.35869 67.3587 7.54125 67.3587 9Z" fill="white"/>
</g>
<g clip-path="url(#clip2_703_20)">
<path d="M62 25.8334C62 29.4232 59.0898 32.3334 55.5 32.3334C51.9102 32.3334 49 29.4232 49 25.8334C49 22.2435 51.9102 19.3334 55.5 19.3334C59.0898 19.3334 62 22.2435 62 25.8334ZM51.2079 25.8334C51.2079 28.2038 53.1295 30.1255 55.5 30.1255C57.8705 30.1255 59.7921 28.2038 59.7921 25.8334C59.7921 23.4629 57.8705 21.5413 55.5 21.5413C53.1295 21.5413 51.2079 23.4629 51.2079 25.8334Z" fill="white"/>
</g>
<g clip-path="url(#clip3_703_20)">
<path d="M65 2.5C65 3.8807 63.8807 5 62.5 5C61.1193 5 60 3.8807 60 2.5C60 1.11929 61.1193 0 62.5 0C63.8807 0 65 1.11929 65 2.5ZM60.8492 2.5C60.8492 3.41173 61.5883 4.15083 62.5 4.15083C63.4117 4.15083 64.1508 3.41173 64.1508 2.5C64.1508 1.58828 63.4117 0.849185 62.5 0.849185C61.5883 0.849185 60.8492 1.58828 60.8492 2.5Z" fill="white"/>
</g>
</g>
<defs>
<clipPath id="clip0_703_20">
<rect width="38.1111" height="56" fill="white" transform="translate(49)"/>
</clipPath>
<clipPath id="clip1_703_20">
<rect width="8" height="8" fill="white" transform="translate(66 5)"/>
</clipPath>
<clipPath id="clip2_703_20">
<rect width="13" height="13" fill="white" transform="translate(49 19.3334)"/>
</clipPath>
<clipPath id="clip3_703_20">
<rect width="5" height="5" fill="white" transform="translate(60)"/>
</clipPath>
</defs>
</svg>
