<svg width="26" height="26" viewBox="0 0 26 26" fill="none" xmlns="http://www.w3.org/2000/svg">
<path d="M19.1714 10.6636C19.3381 8.13525 18.5366 5.22676 16.8759 3.31301C15.2152 1.39927 12.8661 0.218482 10.3395 0.0273983C7.81283 -0.163685 5.3129 0.650382 3.38324 2.2926C1.45359 3.93482 0.250238 6.2724 0.0348291 8.79708C-0.180579 11.3218 0.609375 13.8294 2.23293 15.7748C3.85649 17.7202 6.18237 18.946 8.70486 19.1857C11.2274 19.4254 13.7425 18.6596 15.7034 17.0549C17.6644 15.4502 18.9125 13.1362 19.1765 10.6161L16.8996 10.3776C16.6984 12.2976 15.7475 14.0605 14.2535 15.2832C12.7595 16.5058 10.8433 17.0892 8.92145 16.9066C6.99962 16.7239 5.22758 15.79 3.99062 14.3079C2.75367 12.8257 2.15182 10.9152 2.31594 8.99171C2.48005 7.0682 3.39686 5.28725 4.86702 4.03608C6.33718 2.78491 8.24183 2.16469 10.1668 2.31027C12.0918 2.45586 13.8815 3.35547 15.1468 4.81351C16.4121 6.27156 17.0266 8.45129 16.8996 10.3776L18.038 10.4969L19.1714 10.6636Z" fill="white"/>
<line x1="15.9751" y1="16.4394" x2="24.229" y2="25.1746" stroke="white" stroke-width="2.4036"/>
</svg>
